<?xml version="1.0" encoding="UTF-8"?>
<svg width="168px" height="168px" viewBox="0 0 168 168" version="1.1" xmlns="http://www.w3.org/2000/svg" xmlns:xlink="http://www.w3.org/1999/xlink">
    <!-- Generator: Sketch 46.2 (44496) - http://www.bohemiancoding.com/sketch -->
    <title>icon_empty_state</title>
    <desc>Created with Sketch.</desc>
    <defs>
        <rect id="path-1" x="0" y="0" width="56.4673753" height="95.1135987" rx="1.2773376"></rect>
        <rect id="path-2" x="0" y="0" width="56.4673753" height="95.1135987" rx="1.2773376"></rect>
        <rect id="path-3" x="0" y="0" width="56.4673753" height="95.1135987" rx="1.2773376"></rect>
        <rect id="path-4" x="0" y="0" width="56.4673753" height="95.1135987" rx="1.2773376"></rect>
        <rect id="path-5" x="0" y="0" width="56.55263" height="94.9289964" rx="1.2773376"></rect>
        <rect id="path-6" x="0" y="0" width="51.3798115" height="14.5712269" rx="1.2773376"></rect>
    </defs>
    <g id="Page-1" stroke="none" stroke-width="1" fill="none" fill-rule="evenodd">
        <g id="7b-franchisee-interpretation-copy" transform="translate(-104.000000, -146.000000)">
            <g id="icon_empty_state" transform="translate(104.000000, 146.000000)">
                <circle id="Oval-4" fill="#F3F8FB" cx="84" cy="84" r="84"></circle>
                <g id="illus_onboard_2" transform="translate(25.000000, 29.000000)">
                    <g id="Group-9">
                        <g id="Group-2" transform="translate(77.706767, 61.729007) scale(-1, 1) translate(-77.706767, -61.729007) translate(49.413534, 13.955284)">
                            <g id="Rectangle-3" transform="translate(28.233688, 47.556799) scale(-1, 1) translate(-28.233688, -47.556799) ">
                                <use fill="#C9D1D6" fill-rule="evenodd" xlink:href="#path-1"></use>
                                <rect stroke="#979797" stroke-width="0.5" x="0.25" y="0.25" width="55.9673753" height="94.6135987" rx="1.2773376"></rect>
                            </g>
                            <rect id="Rectangle" stroke="#7F8394" stroke-width="0.5" x="2.74120774" y="77.7654879" width="50.8798115" height="14.0712269" rx="1.2773376"></rect>
                            <rect id="Rectangle-3-Copy-2" fill-opacity="0.25" fill="#7F8394" x="5.14849599" y="80.8484635" width="18.6010178" height="1.33319021"></rect>
                            <rect id="Rectangle-3-Copy-6" fill-opacity="0.25" fill="#7F8394" x="5.14849599" y="84.181439" width="15.2794074" height="1.33319021"></rect>
                            <rect id="Rectangle-3-Copy-8" fill-opacity="0.25" fill="#7F8394" x="35.7073109" y="87.5144145" width="15.2794074" height="1.33319021"></rect>
                            <rect id="Rectangle-3-Copy-7" fill-opacity="0.25" fill="#7F8394" x="5.14849599" y="87.5144145" width="27.9015266" height="1.33319021"></rect>
                        </g>
                        <g id="Group-2" transform="translate(75.215559, 59.633994) scale(-1, 1) translate(-75.215559, -59.633994) translate(46.922326, 11.860271)">
                            <g id="Rectangle-3" transform="translate(28.233688, 47.556799) scale(-1, 1) translate(-28.233688, -47.556799) ">
                                <use fill="#D3DCE2" fill-rule="evenodd" xlink:href="#path-2"></use>
                                <rect stroke="#979797" stroke-width="0.5" x="0.25" y="0.25" width="55.9673753" height="94.6135987" rx="1.2773376"></rect>
                            </g>
                            <rect id="Rectangle" stroke="#7F8394" stroke-width="0.5" x="2.74120774" y="77.7654879" width="50.8798115" height="14.0712269" rx="1.2773376"></rect>
                            <rect id="Rectangle-3-Copy-2" fill-opacity="0.25" fill="#7F8394" x="5.14849599" y="80.8484635" width="18.6010178" height="1.33319021"></rect>
                            <rect id="Rectangle-3-Copy-6" fill-opacity="0.25" fill="#7F8394" x="5.14849599" y="84.181439" width="15.2794074" height="1.33319021"></rect>
                            <rect id="Rectangle-3-Copy-8" fill-opacity="0.25" fill="#7F8394" x="35.7073109" y="87.5144145" width="15.2794074" height="1.33319021"></rect>
                            <rect id="Rectangle-3-Copy-7" fill-opacity="0.25" fill="#7F8394" x="5.14849599" y="87.5144145" width="27.9015266" height="1.33319021"></rect>
                        </g>
                        <g id="Group-2" transform="translate(72.724351, 57.538981) scale(-1, 1) translate(-72.724351, -57.538981) translate(44.431118, 9.765258)">
                            <g id="Rectangle-3" transform="translate(28.233688, 47.556799) scale(-1, 1) translate(-28.233688, -47.556799) ">
                                <use fill="#DDE6EB" fill-rule="evenodd" xlink:href="#path-3"></use>
                                <rect stroke="#979797" stroke-width="0.5" x="0.25" y="0.25" width="55.9673753" height="94.6135987" rx="1.2773376"></rect>
                            </g>
                            <rect id="Rectangle" stroke="#7F8394" stroke-width="0.5" x="2.74120774" y="77.7654879" width="50.8798115" height="14.0712269" rx="1.2773376"></rect>
                            <rect id="Rectangle-3-Copy-2" fill-opacity="0.25" fill="#7F8394" x="5.14849599" y="80.8484635" width="18.6010178" height="1.33319021"></rect>
                            <rect id="Rectangle-3-Copy-6" fill-opacity="0.25" fill="#7F8394" x="5.14849599" y="84.181439" width="15.2794074" height="1.33319021"></rect>
                            <rect id="Rectangle-3-Copy-8" fill-opacity="0.25" fill="#7F8394" x="35.7073109" y="87.5144145" width="15.2794074" height="1.33319021"></rect>
                            <rect id="Rectangle-3-Copy-7" fill-opacity="0.25" fill="#7F8394" x="5.14849599" y="87.5144145" width="27.9015266" height="1.33319021"></rect>
                        </g>
                        <g id="Group-2" transform="translate(70.233144, 55.443967) scale(-1, 1) translate(-70.233144, -55.443967) translate(41.939911, 7.670245)">
                            <g id="Rectangle-3" transform="translate(28.233688, 47.556799) scale(-1, 1) translate(-28.233688, -47.556799) ">
                                <use fill="#E8EFF3" fill-rule="evenodd" xlink:href="#path-4"></use>
                                <rect stroke="#979797" stroke-width="0.5" x="0.25" y="0.25" width="55.9673753" height="94.6135987" rx="1.2773376"></rect>
                            </g>
                            <rect id="Rectangle" stroke="#7F8394" stroke-width="0.5" x="2.74120774" y="77.7654879" width="50.8798115" height="14.0712269" rx="1.2773376"></rect>
                            <rect id="Rectangle-3-Copy-2" fill-opacity="0.25" fill="#7F8394" x="5.14849599" y="80.8484635" width="18.6010178" height="1.33319021"></rect>
                            <rect id="Rectangle-3-Copy-6" fill-opacity="0.25" fill="#7F8394" x="5.14849599" y="84.181439" width="15.2794074" height="1.33319021"></rect>
                            <rect id="Rectangle-3-Copy-8" fill-opacity="0.25" fill="#7F8394" x="35.7073109" y="87.5144145" width="15.2794074" height="1.33319021"></rect>
                            <rect id="Rectangle-3-Copy-7" fill-opacity="0.25" fill="#7F8394" x="5.14849599" y="87.5144145" width="27.9015266" height="1.33319021"></rect>
                        </g>
                        <g id="Group-7">
                            <g id="Group-6">
                                <g id="Group-2" transform="translate(39.991593, 53.664108) scale(-1, 1) rotate(-345.000000) translate(-39.991593, -53.664108) translate(11.698359, 5.890385)">
                                    <g id="Rectangle-3">
                                        <use fill="#F3F8FB" fill-rule="evenodd" xlink:href="#path-5"></use>
                                        <rect stroke="#7F8394" stroke-width="0.8" x="0.4" y="0.4" width="55.75263" height="94.1289964" rx="1.2773376"></rect>
                                    </g>
                                </g>
                                <g id="Group-7-Copy" transform="translate(49.935706, 90.017449) rotate(-15.000000) translate(-49.935706, -90.017449) translate(24.033450, 82.389712)">
                                    <g id="Rectangle">
                                        <use fill="#FFFFFF" fill-rule="evenodd" xlink:href="#path-6"></use>
                                        <rect stroke="#7F8394" stroke-width="0.5" x="0.25" y="0.25" width="50.8798115" height="14.0712269" rx="1.2773376"></rect>
                                    </g>
                                    <rect id="Rectangle-3-Copy-2" fill-opacity="0.25" fill="#7F8394" x="2.65728825" y="3.33297553" width="18.6010178" height="1.33319021"></rect>
                                    <rect id="Rectangle-3-Copy-6" fill-opacity="0.25" fill="#7F8394" x="2.65728825" y="6.66595105" width="15.2794074" height="1.33319021"></rect>
                                    <rect id="Rectangle-3-Copy-8" fill-opacity="0.25" fill="#7F8394" x="33.2161031" y="9.99892658" width="15.2794074" height="1.33319021"></rect>
                                    <rect id="Rectangle-3-Copy-7" fill-opacity="0.25" fill="#7F8394" x="2.65728825" y="9.99892658" width="27.9015266" height="1.33319021"></rect>
                                </g>
                            </g>
                        </g>
                    </g>
                </g>
            </g>
        </g>
    </g>
</svg>