<?xml version="1.0" encoding="UTF-8" standalone="no"?>
<svg width="265px" height="271px" viewBox="0 0 265 271" version="1.1" xmlns="http://www.w3.org/2000/svg" xmlns:xlink="http://www.w3.org/1999/xlink">
    <!-- Generator: Sketch 46.2 (44496) - http://www.bohemiancoding.com/sketch -->
    <title>Group 10</title>
    <desc>Created with Sketch.</desc>
    <defs>
        <rect id="path-1" x="0" y="0" width="141.701149" height="236.919328" rx="3.193344"></rect>
        <rect id="path-2" x="0" y="0" width="141.701149" height="236.919328" rx="3.193344"></rect>
        <rect id="path-3" x="0" y="0" width="141.701149" height="236.919328" rx="3.193344"></rect>
        <rect id="path-4" x="0" y="0" width="141.701149" height="236.919328" rx="3.193344"></rect>
        <rect id="path-5" x="0" y="0" width="141.91509" height="236.4595" rx="3.193344"></rect>
        <rect id="path-6" x="0" y="0" width="128.934244" height="36.2956015" rx="3.193344"></rect>
    </defs>
    <g id="Final-Comps" stroke="none" stroke-width="1" fill="none" fill-rule="evenodd">
        <g id="7b-franchisee-interpretation" transform="translate(-44.000000, -228.000000)">
            <g id="Group-10" transform="translate(43.000000, 227.000000)">
                <g id="illus_onboard_2-copy">
                    <g id="Group-9">
                        <g id="Group-2" transform="translate(195.000000, 153.261345) scale(-1, 1) translate(-195.000000, -153.261345) translate(124.000000, 34.761345)">
                            <g id="Rectangle-3" transform="translate(70.850575, 118.459664) scale(-1, 1) translate(-70.850575, -118.459664) ">
                                <use fill="#C9D1D6" fill-rule="evenodd" xlink:href="#path-1"></use>
                                <rect stroke="#979797" stroke-width="1" x="0.5" y="0.5" width="140.701149" height="235.919328" rx="3.193344"></rect>
                            </g>
                            <rect id="Rectangle" stroke="#7F8394" stroke-width="1.155" x="6.8290213" y="193.661534" width="127.779244" height="35.1406015" rx="3.193344"></rect>
                            <rect id="Rectangle-3-Copy-2" fill-opacity="0.25" fill="#7F8394" x="12.9198107" y="201.386173" width="46.6780257" height="3.32085561"></rect>
                            <rect id="Rectangle-3-Copy-6" fill-opacity="0.25" fill="#7F8394" x="12.9198107" y="209.688312" width="38.342664" height="3.32085561"></rect>
                            <rect id="Rectangle-3-Copy-8" fill-opacity="0.25" fill="#7F8394" x="89.6051386" y="217.990451" width="38.342664" height="3.32085561"></rect>
                            <rect id="Rectangle-3-Copy-7" fill-opacity="0.25" fill="#7F8394" x="12.9198107" y="217.990451" width="70.0170385" height="3.32085561"></rect>
                        </g>
                        <g id="Group-2" transform="translate(188.748479, 148.042857) scale(-1, 1) translate(-188.748479, -148.042857) translate(117.748479, 29.542857)">
                            <g id="Rectangle-3" transform="translate(70.850575, 118.459664) scale(-1, 1) translate(-70.850575, -118.459664) ">
                                <use fill="#D3DCE2" fill-rule="evenodd" xlink:href="#path-2"></use>
                                <rect stroke="#979797" stroke-width="1" x="0.5" y="0.5" width="140.701149" height="235.919328" rx="3.193344"></rect>
                            </g>
                            <rect id="Rectangle" stroke="#7F8394" stroke-width="1.155" x="6.8290213" y="193.661534" width="127.779244" height="35.1406015" rx="3.193344"></rect>
                            <rect id="Rectangle-3-Copy-2" fill-opacity="0.25" fill="#7F8394" x="12.9198107" y="201.386173" width="46.6780257" height="3.32085561"></rect>
                            <rect id="Rectangle-3-Copy-6" fill-opacity="0.25" fill="#7F8394" x="12.9198107" y="209.688312" width="38.342664" height="3.32085561"></rect>
                            <rect id="Rectangle-3-Copy-8" fill-opacity="0.25" fill="#7F8394" x="89.6051386" y="217.990451" width="38.342664" height="3.32085561"></rect>
                            <rect id="Rectangle-3-Copy-7" fill-opacity="0.25" fill="#7F8394" x="12.9198107" y="217.990451" width="70.0170385" height="3.32085561"></rect>
                        </g>
                        <g id="Group-2" transform="translate(182.496957, 142.824370) scale(-1, 1) translate(-182.496957, -142.824370) translate(111.496957, 24.324370)">
                            <g id="Rectangle-3" transform="translate(70.850575, 118.459664) scale(-1, 1) translate(-70.850575, -118.459664) ">
                                <use fill="#DDE6EB" fill-rule="evenodd" xlink:href="#path-3"></use>
                                <rect stroke="#979797" stroke-width="1" x="0.5" y="0.5" width="140.701149" height="235.919328" rx="3.193344"></rect>
                            </g>
                            <rect id="Rectangle" stroke="#7F8394" stroke-width="1.155" x="6.8290213" y="193.661534" width="127.779244" height="35.1406015" rx="3.193344"></rect>
                            <rect id="Rectangle-3-Copy-2" fill-opacity="0.25" fill="#7F8394" x="12.9198107" y="201.386173" width="46.6780257" height="3.32085561"></rect>
                            <rect id="Rectangle-3-Copy-6" fill-opacity="0.25" fill="#7F8394" x="12.9198107" y="209.688312" width="38.342664" height="3.32085561"></rect>
                            <rect id="Rectangle-3-Copy-8" fill-opacity="0.25" fill="#7F8394" x="89.6051386" y="217.990451" width="38.342664" height="3.32085561"></rect>
                            <rect id="Rectangle-3-Copy-7" fill-opacity="0.25" fill="#7F8394" x="12.9198107" y="217.990451" width="70.0170385" height="3.32085561"></rect>
                        </g>
                        <g id="Group-2" transform="translate(176.245436, 137.605882) scale(-1, 1) translate(-176.245436, -137.605882) translate(105.245436, 19.105882)">
                            <g id="Rectangle-3" transform="translate(70.850575, 118.459664) scale(-1, 1) translate(-70.850575, -118.459664) ">
                                <use fill="#E8EFF3" fill-rule="evenodd" xlink:href="#path-4"></use>
                                <rect stroke="#979797" stroke-width="1" x="0.5" y="0.5" width="140.701149" height="235.919328" rx="3.193344"></rect>
                            </g>
                            <rect id="Rectangle" stroke="#7F8394" x="6.7515213" y="193.584034" width="127.934244" height="35.2956015" rx="3.193344"></rect>
                            <rect id="Rectangle-3-Copy-2" fill-opacity="0.25" fill="#7F8394" x="12.9198107" y="201.386173" width="46.6780257" height="3.32085561"></rect>
                            <rect id="Rectangle-3-Copy-6" fill-opacity="0.25" fill="#7F8394" x="12.9198107" y="209.688312" width="38.342664" height="3.32085561"></rect>
                            <rect id="Rectangle-3-Copy-8" fill-opacity="0.25" fill="#7F8394" x="89.6051386" y="217.990451" width="38.342664" height="3.32085561"></rect>
                            <rect id="Rectangle-3-Copy-7" fill-opacity="0.25" fill="#7F8394" x="12.9198107" y="217.990451" width="70.0170385" height="3.32085561"></rect>
                        </g>
                        <g id="Group-7">
                            <g id="Group-6">
                                <g id="Group-2" transform="translate(100.226851, 133.189450) scale(-1, 1) rotate(-345.000000) translate(-100.226851, -133.189450) translate(29.226851, 14.689450)">
                                    <g id="Rectangle-3">
                                        <use fill="#F3F8FB" fill-rule="evenodd" xlink:href="#path-5"></use>
                                        <rect stroke="#7F8394" stroke-width="1" x="0.5" y="0.5" width="140.91509" height="235.4595" rx="3.193344"></rect>
                                    </g>
                                </g>
                                <g id="Group-7-Copy" transform="translate(124.697984, 223.871730) rotate(-15.000000) translate(-124.697984, -223.871730) translate(60.197984, 205.371730)">
                                    <g id="Rectangle">
                                        <use fill="#FFFFFF" fill-rule="evenodd" xlink:href="#path-6"></use>
                                        <rect stroke="#7F8394" stroke-width="1" x="0.5" y="0.5" width="127.934244" height="35.2956015" rx="3.193344"></rect>
                                    </g>
                                    <rect id="Rectangle-3-Copy-2" fill-opacity="0.25" fill="#7F8394" x="6.66828938" y="8.30213904" width="46.6780257" height="3.32085561"></rect>
                                    <rect id="Rectangle-3-Copy-6" fill-opacity="0.25" fill="#7F8394" x="6.66828938" y="16.6042781" width="38.342664" height="3.32085561"></rect>
                                    <rect id="Rectangle-3-Copy-8" fill-opacity="0.25" fill="#7F8394" x="83.3536173" y="24.9064171" width="38.342664" height="3.32085561"></rect>
                                    <rect id="Rectangle-3-Copy-7" fill-opacity="0.25" fill="#7F8394" x="6.66828938" y="24.9064171" width="70.0170385" height="3.32085561"></rect>
                                </g>
                            </g>
                        </g>
                    </g>
                </g>
                <g id="Group" transform="translate(65.000000, 95.000000)">
                    <g id="Group-8-Copy" stroke-linecap="round" stroke-width="3" stroke="#FF5C58" fill="#FFFFFF" stroke-linejoin="round">
                        <g id="Group-4">
                            <g id="noun_632591_cc">
                                <circle id="Oval" cx="30.4" cy="30.4" r="30.3092653"></circle>
                            </g>
                        </g>
                    </g>
                    <path d="M40.312,20.872 C40.312,22.0165391 40.1109353,22.9986626 39.7088,23.8184 C39.3066647,24.6381374 38.7962698,25.3573302 38.1776,25.976 C37.5589302,26.5946698 36.9016035,27.1514642 36.2056,27.6464 C35.5095965,28.1413358 34.8522698,28.6285309 34.2336,29.108 C33.6149302,29.5874691 33.1045353,30.0823974 32.7024,30.5928 C32.3002647,31.1032026 32.0992,31.6986633 32.0992,32.3792 C32.0992,32.7194684 32.1533328,32.9978656 32.2616,33.2144 C32.3698672,33.4309344 32.424,33.6783986 32.424,33.9568 C32.424,34.4826693 32.2306686,34.9698644 31.844,35.4184 C31.4573314,35.8669356 30.9237367,36.0912 30.2432,36.0912 C29.7791977,36.0912 29.3616019,35.9674679 28.9904,35.72 C28.6191981,35.4725321 28.3021346,35.1554686 28.0392,34.7688 C27.7762654,34.3821314 27.5752007,33.9413358 27.436,33.4464 C27.2967993,32.9514642 27.2272,32.4410693 27.2272,31.9152 C27.2272,30.9562619 27.4127981,30.1365367 27.784,29.456 C28.1552019,28.7754633 28.611464,28.164536 29.1528,27.6232 C29.694136,27.081864 30.2895968,26.5946688 30.9392,26.1616 C31.5888032,25.7285312 32.184264,25.2954688 32.7256,24.8624 C33.266936,24.4293312 33.7231981,23.9730691 34.0944,23.4936 C34.4656019,23.0141309 34.6512,22.4496032 34.6512,21.8 C34.6512,20.9029288 34.3032035,20.1296032 33.6072,19.48 C32.9111965,18.8303968 31.8053409,18.5056 30.2896,18.5056 C29.3306619,18.5056 28.4490707,18.6679984 27.6448,18.9928 C26.8405293,19.3176016 26.1136032,19.7583972 25.464,20.3152 C25.0309312,20.6554684 24.4896032,20.8256 23.84,20.8256 C23.2213302,20.8256 22.6800023,20.6090688 22.216,20.176 C21.7519977,19.7429312 21.52,19.1861367 21.52,18.5056 C21.52,18.0415977 21.6282656,17.6240019 21.8448,17.2528 C22.2778688,16.6650637 22.8346633,16.1392023 23.5152,15.6752 C24.1957367,15.2111977 24.9458626,14.8245349 25.7656,14.5152 C26.5853374,14.2058651 27.4359956,13.9738674 28.3176,13.8192 C29.1992044,13.6645326 30.0575958,13.5872 30.8928,13.5872 C32.3466739,13.5872 33.6535942,13.7650649 34.8136,14.1208 C35.9736058,14.4765351 36.9634626,14.9791968 37.7832,15.6288 C38.6029374,16.2784032 39.2293312,17.0517288 39.6624,17.9488 C40.0954688,18.8458712 40.312,19.8202614 40.312,20.872 Z M33.9088,42.216 C33.9088,43.1130712 33.5840032,43.8863968 32.9344,44.536 C32.2847968,45.1856032 31.5114712,45.5104 30.6144,45.5104 C29.7173288,45.5104 28.9440032,45.1856032 28.2944,44.536 C27.6447968,43.8863968 27.32,43.1130712 27.32,42.216 C27.32,41.2879954 27.6447968,40.5069365 28.2944,39.8728 C28.9440032,39.2386635 29.7173288,38.9216 30.6144,38.9216 C31.5114712,38.9216 32.2847968,39.2386635 32.9344,39.8728 C33.5840032,40.5069365 33.9088,41.2879954 33.9088,42.216 Z" id="?" fill="#FF685B"></path>
                </g>
            </g>
        </g>
    </g>
</svg>