<?xml version="1.0" encoding="UTF-8" standalone="no"?>
<svg width="133px" height="136px" viewBox="0 0 133 136" version="1.1" xmlns="http://www.w3.org/2000/svg" xmlns:xlink="http://www.w3.org/1999/xlink">
    <!-- Generator: Sketch 46.2 (44496) - http://www.bohemiancoding.com/sketch -->
    <title>illus_onboard_2</title>
    <desc>Created with Sketch.</desc>
    <defs>
        <rect id="path-1" x="0" y="0" width="70.8505747" height="118.459664" rx="1.596672"></rect>
        <rect id="path-2" x="0" y="0" width="70.8505747" height="118.459664" rx="1.596672"></rect>
        <rect id="path-3" x="0" y="0" width="70.8505747" height="118.459664" rx="1.596672"></rect>
        <rect id="path-4" x="0" y="0" width="70.8505747" height="118.459664" rx="1.596672"></rect>
        <rect id="path-5" x="0" y="0" width="70.9575452" height="118.22975" rx="1.596672"></rect>
        <rect id="path-6" x="0" y="0" width="64.467122" height="18.1478008" rx="1.596672"></rect>
    </defs>
    <g id="Final-Comps" stroke="none" stroke-width="1" fill="none" fill-rule="evenodd">
        <g id="1-onboarding" transform="translate(-222.000000, -449.000000)">
            <g id="illus_onboard_2" transform="translate(222.000000, 449.000000)">
                <g id="Group-9">
                    <g id="Group-2" transform="translate(97.500000, 76.880672) scale(-1, 1) translate(-97.500000, -76.880672) translate(62.000000, 17.380672)">
                        <g id="Rectangle-3" transform="translate(35.425287, 59.229832) scale(-1, 1) translate(-35.425287, -59.229832) ">
                            <use fill="#C9D1D6" fill-rule="evenodd" xlink:href="#path-1"></use>
                            <rect stroke="#979797" stroke-width="0.5775" x="0.28875" y="0.28875" width="70.2730747" height="117.882164" rx="1.596672"></rect>
                        </g>
                        <rect id="Rectangle" stroke="#7F8394" stroke-width="0.5775" x="3.41451065" y="96.8307668" width="63.889622" height="17.5703008" rx="1.596672"></rect>
                        <rect id="Rectangle-3-Copy-2" fill-opacity="0.25" fill="#7F8394" x="6.45990534" y="100.693086" width="23.3390128" height="1.66042781"></rect>
                        <rect id="Rectangle-3-Copy-6" fill-opacity="0.25" fill="#7F8394" x="6.45990534" y="104.844156" width="19.171332" height="1.66042781"></rect>
                        <rect id="Rectangle-3-Copy-8" fill-opacity="0.25" fill="#7F8394" x="44.8025693" y="108.995225" width="19.171332" height="1.66042781"></rect>
                        <rect id="Rectangle-3-Copy-7" fill-opacity="0.25" fill="#7F8394" x="6.45990534" y="108.995225" width="35.0085193" height="1.66042781"></rect>
                    </g>
                    <g id="Group-2" transform="translate(94.374239, 74.271429) scale(-1, 1) translate(-94.374239, -74.271429) translate(58.874239, 14.771429)">
                        <g id="Rectangle-3" transform="translate(35.425287, 59.229832) scale(-1, 1) translate(-35.425287, -59.229832) ">
                            <use fill="#D3DCE2" fill-rule="evenodd" xlink:href="#path-2"></use>
                            <rect stroke="#979797" stroke-width="0.5775" x="0.28875" y="0.28875" width="70.2730747" height="117.882164" rx="1.596672"></rect>
                        </g>
                        <rect id="Rectangle" stroke="#7F8394" stroke-width="0.5775" x="3.41451065" y="96.8307668" width="63.889622" height="17.5703008" rx="1.596672"></rect>
                        <rect id="Rectangle-3-Copy-2" fill-opacity="0.25" fill="#7F8394" x="6.45990534" y="100.693086" width="23.3390128" height="1.66042781"></rect>
                        <rect id="Rectangle-3-Copy-6" fill-opacity="0.25" fill="#7F8394" x="6.45990534" y="104.844156" width="19.171332" height="1.66042781"></rect>
                        <rect id="Rectangle-3-Copy-8" fill-opacity="0.25" fill="#7F8394" x="44.8025693" y="108.995225" width="19.171332" height="1.66042781"></rect>
                        <rect id="Rectangle-3-Copy-7" fill-opacity="0.25" fill="#7F8394" x="6.45990534" y="108.995225" width="35.0085193" height="1.66042781"></rect>
                    </g>
                    <g id="Group-2" transform="translate(91.248479, 71.662185) scale(-1, 1) translate(-91.248479, -71.662185) translate(55.748479, 12.162185)">
                        <g id="Rectangle-3" transform="translate(35.425287, 59.229832) scale(-1, 1) translate(-35.425287, -59.229832) ">
                            <use fill="#DDE6EB" fill-rule="evenodd" xlink:href="#path-3"></use>
                            <rect stroke="#979797" stroke-width="0.5775" x="0.28875" y="0.28875" width="70.2730747" height="117.882164" rx="1.596672"></rect>
                        </g>
                        <rect id="Rectangle" stroke="#7F8394" stroke-width="0.5775" x="3.41451065" y="96.8307668" width="63.889622" height="17.5703008" rx="1.596672"></rect>
                        <rect id="Rectangle-3-Copy-2" fill-opacity="0.25" fill="#7F8394" x="6.45990534" y="100.693086" width="23.3390128" height="1.66042781"></rect>
                        <rect id="Rectangle-3-Copy-6" fill-opacity="0.25" fill="#7F8394" x="6.45990534" y="104.844156" width="19.171332" height="1.66042781"></rect>
                        <rect id="Rectangle-3-Copy-8" fill-opacity="0.25" fill="#7F8394" x="44.8025693" y="108.995225" width="19.171332" height="1.66042781"></rect>
                        <rect id="Rectangle-3-Copy-7" fill-opacity="0.25" fill="#7F8394" x="6.45990534" y="108.995225" width="35.0085193" height="1.66042781"></rect>
                    </g>
                    <g id="Group-2" transform="translate(88.122718, 69.052941) scale(-1, 1) translate(-88.122718, -69.052941) translate(52.622718, 9.552941)">
                        <g id="Rectangle-3" transform="translate(35.425287, 59.229832) scale(-1, 1) translate(-35.425287, -59.229832) ">
                            <use fill="#E8EFF3" fill-rule="evenodd" xlink:href="#path-4"></use>
                            <rect stroke="#979797" stroke-width="0.5775" x="0.28875" y="0.28875" width="70.2730747" height="117.882164" rx="1.596672"></rect>
                        </g>
                        <rect id="Rectangle" stroke="#7F8394" stroke-width="0.5775" x="3.41451065" y="96.8307668" width="63.889622" height="17.5703008" rx="1.596672"></rect>
                        <rect id="Rectangle-3-Copy-2" fill-opacity="0.25" fill="#7F8394" x="6.45990534" y="100.693086" width="23.3390128" height="1.66042781"></rect>
                        <rect id="Rectangle-3-Copy-6" fill-opacity="0.25" fill="#7F8394" x="6.45990534" y="104.844156" width="19.171332" height="1.66042781"></rect>
                        <rect id="Rectangle-3-Copy-8" fill-opacity="0.25" fill="#7F8394" x="44.8025693" y="108.995225" width="19.171332" height="1.66042781"></rect>
                        <rect id="Rectangle-3-Copy-7" fill-opacity="0.25" fill="#7F8394" x="6.45990534" y="108.995225" width="35.0085193" height="1.66042781"></rect>
                    </g>
                    <g id="Group-7">
                        <g id="Group-6">
                            <g id="Group-2" transform="translate(50.178130, 66.836207) scale(-1, 1) rotate(-345.000000) translate(-50.178130, -66.836207) translate(14.678130, 7.336207)">
                                <g id="Rectangle-3">
                                    <use fill="#F3F8FB" fill-rule="evenodd" xlink:href="#path-5"></use>
                                    <rect stroke="#7F8394" stroke-width="1" x="0.5" y="0.5" width="69.9575452" height="117.22975" rx="1.596672"></rect>
                                </g>
                            </g>
                            <g id="Group-7-Copy" transform="translate(62.655178, 112.112642) rotate(-15.000000) translate(-62.655178, -112.112642) translate(30.155178, 102.612642)">
                                <g id="Rectangle">
                                    <use fill="#FFFFFF" fill-rule="evenodd" xlink:href="#path-6"></use>
                                    <rect stroke="#7F8394" stroke-width="0.5775" x="0.28875" y="0.28875" width="63.889622" height="17.5703008" rx="1.596672"></rect>
                                </g>
                                <rect id="Rectangle-3-Copy-2" fill-opacity="0.25" fill="#7F8394" x="3.33414469" y="4.15106952" width="23.3390128" height="1.66042781"></rect>
                                <rect id="Rectangle-3-Copy-6" fill-opacity="0.25" fill="#7F8394" x="3.33414469" y="8.30213904" width="19.171332" height="1.66042781"></rect>
                                <rect id="Rectangle-3-Copy-8" fill-opacity="0.25" fill="#7F8394" x="41.6768087" y="12.4532086" width="19.171332" height="1.66042781"></rect>
                                <rect id="Rectangle-3-Copy-7" fill-opacity="0.25" fill="#7F8394" x="3.33414469" y="12.4532086" width="35.0085193" height="1.66042781"></rect>
                            </g>
                        </g>
                    </g>
                </g>
                <path d="M71,62 C71,63.3784366 69.906,64.4953756 68.5575,64.4953756 L67.1755,64.4953756 L67.1755,67.6622324 C67.1755,69.2023312 65.953,70.4510326 64.4455,70.4510326 L62.791,70.4510326 L62.791,71.2111998 C62.791,72.7512986 61.569,74 60.0615,74 L58.2415,74 C56.7335,74 55.512,72.7512986 55.512,71.2111998 L55.512,64.4953756 L36.487,64.4953756 L36.487,71.2111998 C36.487,72.7512986 35.265,74 33.7575,74 L31.9375,74 C30.43,74 29.208,72.7512986 29.208,71.2111998 L29.208,70.4510326 L27.5535,70.4510326 C26.046,70.4510326 24.824,69.2023312 24.824,67.6622324 L24.824,64.4953756 L23.4425,64.4953756 C22.094,64.4953756 21,63.3784366 21,62 C21,60.6215634 22.094,59.5046244 23.4425,59.5046244 L24.8245,59.5046244 L24.8245,56.4223996 C24.8245,54.8823008 26.0465,53.6341062 27.554,53.6341062 L29.2085,53.6341062 L29.2085,52.789307 C29.2085,51.2487014 30.4305,50.0005068 31.938,50.0005068 L33.758,50.0005068 C35.2655,50.0005068 36.4875,51.2487014 36.4875,52.789307 L36.4875,59.5046244 L55.5125,59.5046244 L55.5125,52.7888002 C55.5125,51.2481946 56.734,50 58.242,50 L60.062,50 C61.5695,50 62.7915,51.2481946 62.7915,52.7888002 L62.7915,53.6335994 L64.446,53.6335994 C65.9535,53.6335994 67.176,54.881794 67.176,56.4218928 L67.176,59.5041176 L68.558,59.5041176 C69.9065,59.5046244 71,60.6215634 71,62 Z" id="Shape" fill-opacity="0.2" fill="#7F8394" fill-rule="nonzero" transform="translate(46.000000, 62.000000) rotate(24.000000) translate(-46.000000, -62.000000) "></path>
            </g>
        </g>
    </g>
</svg>