<?xml version="1.0" encoding="UTF-8" standalone="no"?>
<svg width="254px" height="260px" viewBox="0 0 254 260" version="1.1" xmlns="http://www.w3.org/2000/svg" xmlns:xlink="http://www.w3.org/1999/xlink">
    <!-- Generator: Sketch 46.2 (44496) - http://www.bohemiancoding.com/sketch -->
    <title>illus_brand_consumers_see</title>
    <desc>Created with Sketch.</desc>
    <defs>
        <rect id="path-1" x="0" y="0" width="136" height="227" rx="3.072"></rect>
        <rect id="path-2" x="0" y="0" width="136" height="227" rx="3.072"></rect>
        <rect id="path-3" x="0" y="0" width="136" height="227" rx="3.072"></rect>
        <rect id="path-4" x="0" y="0" width="136" height="227" rx="3.072"></rect>
        <rect id="path-5" x="0" y="0" width="136.205333" height="226.559424" rx="3.072"></rect>
        <rect id="path-6" x="0" y="0" width="123.746753" height="34.7759789" rx="3.072"></rect>
    </defs>
    <g id="Final-Comps" stroke="none" stroke-width="1" fill="none" fill-rule="evenodd">
        <g id="7b-franchisee-interpretation" transform="translate(-47.000000, -232.000000)">
            <g id="illus_brand_consumers_see" transform="translate(46.000000, 232.000000)">
                <g id="Group-2" transform="translate(187.000000, 146.500000) scale(-1, 1) translate(-187.000000, -146.500000) translate(119.000000, 33.000000)">
                    <g id="Rectangle-3" transform="translate(68.000000, 113.500000) scale(-1, 1) translate(-68.000000, -113.500000) ">
                        <use fill="#DADEE1" fill-rule="evenodd" xlink:href="#path-1"></use>
                        <rect stroke="#979797" stroke-width="0.5" x="0.25" y="0.25" width="135.5" height="226.5" rx="3.072"></rect>
                    </g>
                    <rect id="Rectangle" stroke="#7F8394" stroke-width="0.8" x="6.4" y="185.4" width="122.946753" height="33.9759789" rx="3.072"></rect>
                    <rect id="Rectangle-3-Copy-2" fill-opacity="0.25" fill="#7F8394" x="12.4" y="192.954545" width="44.8" height="3.18181818"></rect>
                    <rect id="Rectangle-3-Copy-6" fill-opacity="0.25" fill="#7F8394" x="12.4" y="200.909091" width="36.8" height="3.18181818"></rect>
                    <rect id="Rectangle-3-Copy-8" fill-opacity="0.25" fill="#7F8394" x="86" y="208.863636" width="36.8" height="3.18181818"></rect>
                    <rect id="Rectangle-3-Copy-7" fill-opacity="0.25" fill="#7F8394" x="12.4" y="208.863636" width="67.2" height="3.18181818"></rect>
                </g>
                <g id="Group-2" transform="translate(181.000000, 141.500000) scale(-1, 1) translate(-181.000000, -141.500000) translate(113.000000, 28.000000)">
                    <g id="Rectangle-3" transform="translate(68.000000, 113.500000) scale(-1, 1) translate(-68.000000, -113.500000) ">
                        <use fill="#E1E4E6" fill-rule="evenodd" xlink:href="#path-2"></use>
                        <rect stroke="#979797" stroke-width="0.5" x="0.25" y="0.25" width="135.5" height="226.5" rx="3.072"></rect>
                    </g>
                    <rect id="Rectangle" stroke="#7F8394" stroke-width="0.8" x="6.4" y="185.4" width="122.946753" height="33.9759789" rx="3.072"></rect>
                    <rect id="Rectangle-3-Copy-2" fill-opacity="0.25" fill="#7F8394" x="12.4" y="192.954545" width="44.8" height="3.18181818"></rect>
                    <rect id="Rectangle-3-Copy-6" fill-opacity="0.25" fill="#7F8394" x="12.4" y="200.909091" width="36.8" height="3.18181818"></rect>
                    <rect id="Rectangle-3-Copy-8" fill-opacity="0.25" fill="#7F8394" x="86" y="208.863636" width="36.8" height="3.18181818"></rect>
                    <rect id="Rectangle-3-Copy-7" fill-opacity="0.25" fill="#7F8394" x="12.4" y="208.863636" width="67.2" height="3.18181818"></rect>
                </g>
                <g id="Group-2" transform="translate(175.000000, 136.500000) scale(-1, 1) translate(-175.000000, -136.500000) translate(107.000000, 23.000000)">
                    <g id="Rectangle-3" transform="translate(68.000000, 113.500000) scale(-1, 1) translate(-68.000000, -113.500000) ">
                        <use fill="#E6E8EA" fill-rule="evenodd" xlink:href="#path-3"></use>
                        <rect stroke="#979797" stroke-width="0.5" x="0.25" y="0.25" width="135.5" height="226.5" rx="3.072"></rect>
                    </g>
                    <rect id="Rectangle" stroke="#7F8394" stroke-width="0.8" x="6.4" y="185.4" width="122.946753" height="33.9759789" rx="3.072"></rect>
                    <rect id="Rectangle-3-Copy-2" fill-opacity="0.25" fill="#7F8394" x="12.4" y="192.954545" width="44.8" height="3.18181818"></rect>
                    <rect id="Rectangle-3-Copy-6" fill-opacity="0.25" fill="#7F8394" x="12.4" y="200.909091" width="36.8" height="3.18181818"></rect>
                    <rect id="Rectangle-3-Copy-8" fill-opacity="0.25" fill="#7F8394" x="86" y="208.863636" width="36.8" height="3.18181818"></rect>
                    <rect id="Rectangle-3-Copy-7" fill-opacity="0.25" fill="#7F8394" x="12.4" y="208.863636" width="67.2" height="3.18181818"></rect>
                </g>
                <g id="Group-2" transform="translate(169.000000, 131.500000) scale(-1, 1) translate(-169.000000, -131.500000) translate(101.000000, 18.000000)">
                    <g id="Rectangle-3" transform="translate(68.000000, 113.500000) scale(-1, 1) translate(-68.000000, -113.500000) ">
                        <use fill="#ECEDED" fill-rule="evenodd" xlink:href="#path-4"></use>
                        <rect stroke="#979797" stroke-width="0.5" x="0.25" y="0.25" width="135.5" height="226.5" rx="3.072"></rect>
                    </g>
                    <rect id="Rectangle" stroke="#7F8394" stroke-width="0.8" x="6.4" y="185.4" width="122.946753" height="33.9759789" rx="3.072"></rect>
                    <rect id="Rectangle-3-Copy-2" fill-opacity="0.25" fill="#7F8394" x="12.4" y="192.954545" width="44.8" height="3.18181818"></rect>
                    <rect id="Rectangle-3-Copy-6" fill-opacity="0.25" fill="#7F8394" x="12.4" y="200.909091" width="36.8" height="3.18181818"></rect>
                    <rect id="Rectangle-3-Copy-8" fill-opacity="0.25" fill="#7F8394" x="86" y="208.863636" width="36.8" height="3.18181818"></rect>
                    <rect id="Rectangle-3-Copy-7" fill-opacity="0.25" fill="#7F8394" x="12.4" y="208.863636" width="67.2" height="3.18181818"></rect>
                </g>
                <g id="Group-7">
                    <g id="Group-6">
                        <g id="Group-2" transform="translate(95.541881, 127.361686) scale(-1, 1) rotate(-345.000000) translate(-95.541881, -127.361686) translate(27.041881, 13.861686)">
                            <g id="Rectangle-3">
                                <use fill="#FFFFFF" fill-rule="evenodd" xlink:href="#path-5"></use>
                                <rect stroke="#7F8394" stroke-width="0.8" x="0.4" y="0.4" width="135.405333" height="225.759424" rx="3.072"></rect>
                            </g>
                        </g>
                        <g id="Group-7-Copy" transform="translate(119.416735, 213.950483) rotate(-15.000000) translate(-119.416735, -213.950483) translate(57.416735, 196.450483)">
                            <g id="Rectangle">
                                <use fill="#FFFFFF" fill-rule="evenodd" xlink:href="#path-6"></use>
                                <rect stroke="#7F8394" stroke-width="0.8" x="0.4" y="0.4" width="122.946753" height="33.9759789" rx="3.072"></rect>
                            </g>
                            <rect id="Rectangle-3-Copy-2" fill-opacity="0.25" fill="#7F8394" x="6.4" y="7.95454545" width="44.8" height="3.18181818"></rect>
                            <rect id="Rectangle-3-Copy-6" fill-opacity="0.25" fill="#7F8394" x="6.4" y="15.9090909" width="36.8" height="3.18181818"></rect>
                            <rect id="Rectangle-3-Copy-8" fill-opacity="0.25" fill="#7F8394" x="80" y="23.8636364" width="36.8" height="3.18181818"></rect>
                            <rect id="Rectangle-3-Copy-7" fill-opacity="0.25" fill="#7F8394" x="6.4" y="23.8636364" width="67.2" height="3.18181818"></rect>
                        </g>
                    </g>
                    <g id="Group-5" transform="translate(71.000000, 99.000000)">
                        <g id="Group-8" transform="translate(0.000000, 1.000000)" stroke-linecap="round" stroke-width="3" stroke="#FF5C58" fill="#FFFFFF" stroke-linejoin="round">
                            <g id="Group-4">
                                <g id="noun_632591_cc">
                                    <circle id="Oval" cx="25" cy="25" r="24.9253827"></circle>
                                </g>
                            </g>
                        </g>
                        <text id="?" font-family="ProximaNovaSoft-Semibold, Proxima Nova Soft" font-size="42" font-weight="500" fill="#FF685B">
                            <tspan x="15.382" y="40">?</tspan>
                        </text>
                    </g>
                </g>
            </g>
        </g>
    </g>
</svg>