<?xml version="1.0" encoding="UTF-8" standalone="no"?>
<svg width="58px" height="20px" viewBox="0 0 58 20" version="1.1" xmlns="http://www.w3.org/2000/svg" xmlns:xlink="http://www.w3.org/1999/xlink">
    <!-- Generator: Sketch 46.2 (44496) - http://www.bohemiancoding.com/sketch -->
    <title>logo_blink</title>
    <desc>Created with Sketch.</desc>
    <defs></defs>
    <g id="Final-Comps" stroke="none" stroke-width="1" fill="none" fill-rule="evenodd">
        <g id="8a-Blink-Photo" transform="translate(-30.000000, -94.000000)" fill-rule="nonzero" fill="#FFFFFF">
            <g id="logo_blink" transform="translate(30.000000, 94.000000)">
                <path d="M57,2.42222222 L57,0.688888889 L56.1555556,0.688888889 L56.1555556,2.22222222 L55.6666667,2.22222222 L55.6666667,0.688888889 L54.4222222,0.688888889 L54.4222222,0.133333333 L57.4888889,0.133333333 L57.4888889,2.42222222 L57,2.42222222 Z M54.4222222,3.26666667 L57.4888889,3.26666667 L57.4888889,3.8 L54.4222222,3.8 L54.4222222,3.26666667 Z M54.4222222,6.15555556 L54.4222222,5.6 L57,5.6 L57,4.64444444 L57.4888889,4.64444444 L57.4888889,7.13333333 L57,7.13333333 L57,6.15555556 L54.4222222,6.15555556 Z M57.4888889,10.0666667 L57.4888889,10.6 L54.4222222,10.6 L54.4222222,10.1555556 L56.6,8.44444444 L54.4222222,8.44444444 L54.4222222,7.91111111 L57.4888889,7.91111111 L57.4888889,8.42222222 L55.3777778,10.0666667 L57.4888889,10.0666667 Z M57.0222222,13.8888889 L57.0222222,12.1555556 L56.2222222,12.1555556 L56.2222222,13.6888889 L55.7333333,13.6888889 L55.7333333,12.1555556 L54.9111111,12.1555556 L54.9111111,13.9111111 L54.4222222,13.9111111 L54.4222222,11.6222222 L57.4888889,11.6222222 L57.4888889,13.8888889 L57.0222222,13.8888889 Z M56.2,15.9555556 C56.0444444,16.6 55.8,16.9333333 55.2888889,16.9333333 C54.7111111,16.9333333 54.3555556,16.4888889 54.3555556,15.8444444 C54.3555556,15.3777778 54.5111111,14.9333333 54.8444444,14.5555556 L55.2222222,14.8888889 C54.9777778,15.1777778 54.8222222,15.4666667 54.8222222,15.8666667 C54.8222222,16.2 54.9777778,16.4 55.2222222,16.4 C55.4444444,16.4 55.5555556,16.2666667 55.6888889,15.7111111 C55.8444444,15.0666667 56.0444444,14.6888889 56.6,14.6888889 C57.1333333,14.6888889 57.4888889,15.1333333 57.4888889,15.7333333 C57.4888889,16.1777778 57.3555556,16.5333333 57.1111111,16.8444444 L56.7111111,16.5555556 C56.9111111,16.2888889 57.0222222,16 57.0222222,15.7111111 C57.0222222,15.4 56.8666667,15.2 56.6444444,15.2 C56.4444444,15.2222222 56.3555556,15.3777778 56.2,15.9555556 L56.2,15.9555556 Z M56.2,18.9555556 C56.0444444,19.6 55.8,19.9333333 55.2888889,19.9333333 C54.7111111,19.9333333 54.3555556,19.4888889 54.3555556,18.8444444 C54.3555556,18.3777778 54.5111111,17.9333333 54.8444444,17.5555556 L55.2222222,17.8888889 C54.9777778,18.1777778 54.8222222,18.4888889 54.8222222,18.8666667 C54.8222222,19.2 54.9777778,19.4222222 55.2222222,19.4222222 C55.4444444,19.4222222 55.5555556,19.2888889 55.6888889,18.7333333 C55.8444444,18.0888889 56.0444444,17.7111111 56.6,17.7111111 C57.1333333,17.7111111 57.4888889,18.1555556 57.4888889,18.7555556 C57.4888889,19.2 57.3555556,19.5555556 57.1111111,19.8666667 L56.7111111,19.5777778 C56.9111111,19.3111111 57.0222222,19.0222222 57.0222222,18.7333333 C57.0222222,18.4222222 56.8666667,18.2222222 56.6444444,18.2222222 C56.4444444,18.2222222 56.3555556,18.3555556 56.2,18.9555556 L56.2,18.9555556 Z M6.24444444,16.9555556 C4.22222222,16.9333333 2.95555556,15.5777778 2.91111111,13.4666667 C2.95555556,11.3555556 4.22222222,10.0222222 6.24444444,10 C8.2,10.0222222 9.4,11.3333333 9.44444444,13.4666667 C9.4,15.6222222 8.2,16.9333333 6.24444444,16.9555556 L6.24444444,16.9555556 Z M6.53333333,7.06666667 L6.51111111,7.06666667 C5.26666667,7.06666667 3.97777778,7.42222222 3,8.08888889 L3,0 L0,0 L0,19.9333333 L3.02222222,19.9333333 L3,18.8222222 C3.97777778,19.4888889 5.37777778,19.9111111 6.6,19.9333333 C9.68888889,19.9333333 12.1111111,17.5777778 12.5777778,14.4666667 L12.6,14.3555556 L12.6444444,13.5111111 L12.6444444,13.4 C12.6222222,9.8 10,7.08888889 6.53333333,7.06666667 L6.53333333,7.06666667 Z M14.6888889,0 L17.6888889,0 L17.6888889,19.9333333 L14.6888889,19.9333333 L14.6888889,0 Z M40.6444444,0 L40.6444444,19.9333333 L43.6444444,19.9333333 L43.6444444,16.1111111 L44.5555556,15.1555556 L48.4888889,19.9333333 L52.3333333,19.9333333 L46.6444444,13.0222222 L51.8,7.57777778 L47.8444444,7.57777778 L43.6444444,12 L43.6444444,0 L40.6444444,0 Z M20.8666667,7.57777778 L23.8888889,7.57777778 L23.8888889,19.9333333 L20.8666667,19.9333333 L20.8666667,7.57777778 Z M36.7555556,8.75555556 C35.9111111,7.86666667 34.8,7.37777778 33.4,7.35555556 L33.2666667,7.35555556 C31.7777778,7.37777778 31,7.73333333 30.1777778,8.35555556 L30.1555556,7.51111111 L27.3111111,7.51111111 L27.3111111,19.9333333 L30.3111111,19.9333333 L30.3111111,13.1555556 C30.3555556,11.3111111 31.2888889,10.3333333 33.0888889,10.2888889 C34.5777778,10.3777778 34.9777778,10.8666667 35.0888889,12.6666667 L35.0888889,19.9555556 L38.0888889,19.9555556 L38.0888889,12.3555556 C38.0666667,10.8888889 37.6,9.64444444 36.7555556,8.75555556 L36.7555556,8.75555556 Z" id="Shape"></path>
                <g id="Group" transform="translate(20.444444, 2.000000)">
                    <circle id="Oval" cx="2.04444444" cy="2.13333333" r="2"></circle>
                </g>
                <g id="Group" transform="translate(26.888889, 2.000000)">
                    <circle id="Oval" cx="2.04444444" cy="2.13333333" r="2"></circle>
                </g>
            </g>
        </g>
    </g>
</svg>