<?xml version="1.0" encoding="UTF-8" standalone="no"?>
<svg width="67px" height="25px" viewBox="0 0 67 25" version="1.1" xmlns="http://www.w3.org/2000/svg" xmlns:xlink="http://www.w3.org/1999/xlink">
    <!-- Generator: Sketch 46.2 (44496) - http://www.bohemiancoding.com/sketch -->
    <title>logo_blink_lg</title>
    <desc>Created with Sketch.</desc>
    <defs></defs>
    <g id="Final-Comps" stroke="none" stroke-width="1" fill="none" fill-rule="evenodd">
        <g id="7-searching" transform="translate(-154.000000, -298.000000)" fill-rule="nonzero">
            <g id="icon_loading_modal" transform="translate(120.000000, 246.000000)">
                <g id="logo_blink_lg" transform="translate(34.000000, 52.000000)">
                    <path d="M7.99447983,21.2416481 C5.40552017,21.2138085 3.78386412,19.5155902 3.72696391,16.8708241 C3.78386412,14.2260579 5.40552017,12.5556793 7.99447983,12.5278396 C10.4980892,12.5556793 12.0343949,14.1982183 12.0912951,16.8708241 C12.0343949,19.5712695 10.4980892,21.2138085 7.99447983,21.2416481 L7.99447983,21.2416481 Z M8.36433121,8.85300668 L8.3358811,8.85300668 C6.74267516,8.85300668 5.092569,9.29844098 3.84076433,10.1336303 L3.84076433,0 L0,0 L0,24.9721604 L3.86921444,24.9721604 L3.84076433,23.5801782 C5.092569,24.4153675 6.88492569,24.9443207 8.44968153,24.9721604 C12.4042463,24.9721604 15.5053079,22.0211581 16.1027601,18.123608 L16.1312102,17.9844098 L16.1881104,16.9265033 L16.1881104,16.7873051 C16.1596603,12.2772829 12.8025478,8.88084633 8.36433121,8.85300668 L8.36433121,8.85300668 Z M18.8055202,0 L22.6462845,0 L22.6462845,24.9721604 L18.8055202,24.9721604 L18.8055202,0 Z M52.0352442,0 L52.0352442,24.9721604 L55.8760085,24.9721604 L55.8760085,20.1837416 L57.0424628,18.986637 L62.0781316,24.9721604 L67,24.9721604 L59.7167728,16.3140312 L66.3171975,9.49331849 L61.2530786,9.49331849 L55.8760085,15.0334076 L55.8760085,0 L52.0352442,0 Z M26.7146497,9.49331849 L30.5838641,9.49331849 L30.5838641,24.9721604 L26.7146497,24.9721604 L26.7146497,9.49331849 Z M47.0564756,10.9688196 C45.9753715,9.85523385 44.5528662,9.24276169 42.7605096,9.21492205 L42.5898089,9.21492205 C40.6836518,9.24276169 39.6878981,9.68819599 38.6352442,10.467706 L38.6067941,9.40979955 L34.9651805,9.40979955 L34.9651805,24.9721604 L38.8059448,24.9721604 L38.8059448,16.481069 C38.862845,14.1703786 40.0577495,12.9454343 42.3622081,12.889755 C44.2683652,13.0011136 44.7804671,13.6135857 44.9227176,15.8685969 L44.9227176,25 L48.763482,25 L48.763482,15.4788419 C48.7350318,13.6414254 48.1375796,12.0824053 47.0564756,10.9688196 L47.0564756,10.9688196 Z" id="Shape" fill="#435361"></path>
                    <g id="Group" transform="translate(26.000000, 2.000000)" fill="#F04C23">
                        <circle id="Oval" cx="2.42105263" cy="2.52631579" r="2.36842105"></circle>
                    </g>
                    <g id="Group" transform="translate(35.000000, 2.000000)" fill="#00A5DE">
                        <circle id="Oval" cx="2.42105263" cy="2.52631579" r="2.36842105"></circle>
                    </g>
                </g>
            </g>
        </g>
    </g>
</svg>