<?xml version="1.0" encoding="UTF-8" standalone="no"?>
<svg width="138px" height="31px" viewBox="0 0 138 31" version="1.1" xmlns="http://www.w3.org/2000/svg" xmlns:xlink="http://www.w3.org/1999/xlink">
    <!-- Generator: Sketch 46.2 (44496) - http://www.bohemiancoding.com/sketch -->
    <title>logo_retrofitness</title>
    <desc>Created with Sketch.</desc>
    <defs>
        <polygon id="path-1" points="0.12205935 0.0743495935 5.24008374 0.0743495935 5.24008374 18.3531341 0.12205935 18.3531341 0.12205935 0.0743495935"></polygon>
        <polygon id="path-3" points="1.02470327e-20 0.154243902 1.02470327e-20 5.828 5.69664065 5.828 5.69664065 0.154243902 0 0.154243902"></polygon>
    </defs>
    <g id="Final-Comps" stroke="none" stroke-width="1" fill="none" fill-rule="evenodd">
        <g id="11a-RF-Photo" transform="translate(-30.000000, -90.000000)">
            <g id="logo_retrofitness" transform="translate(30.000000, 90.000000)">
                <g id="Group-3" transform="translate(51.666667, 0.177683)">
                    <mask id="mask-2" fill="white">
                        <use xlink:href="#path-1"></use>
                    </mask>
                    <g id="Clip-2"></g>
                    <path d="M0.747856098,6.03202033 C0.747856098,9.47629675 1.91123821,13.950378 4.03637642,18.3531341 L4.0446935,18.3392724 L5.20001057,16.4288659 L5.20757154,16.4165163 C3.18349837,11.6442805 2.79688049,7.0943374 3.37831951,4.49084146 L3.4239374,4.28316667 C3.4239374,4.28316667 4.50994553,5.20661382 4.9011,5.53828862 C4.67628699,4.55712602 4.58278293,3.74205285 4.58278293,3.08777642 C4.58278293,1.63077642 5.00266911,0.91853252 5.24008374,0.63146748 C4.16390488,0.221914634 3.28456341,0.0742235772 2.5768561,0.0742235772 C1.05735203,0.0742235772 0.324693496,0.754207317 0.12205935,0.984060976 C0.265213821,1.13351626 1.38171789,2.30471138 1.38171789,2.30471138 L1.35021382,2.38384959 C0.941921138,3.37534553 0.747856098,4.61635366 0.747856098,6.03202033" id="Fill-1" fill="#FEFEFE" mask="url(#mask-2)"></path>
                </g>
                <path d="M63.4878236,5.65939024 L63.5669618,5.52833333 L63.700287,5.30780488 C62.049474,3.46746341 60.5919699,2.45328455 59.6292057,1.91872358 C59.2468724,1.70550407 58.7846447,1.59486179 58.3569455,1.59486179 C58.0638317,1.59486179 57.7863439,1.64703252 57.5617829,1.75389431 C57.4342545,1.81387805 57.2883276,1.91670732 57.1882707,2.06994309 C58.864539,1.55100813 61.1600512,2.93088618 63.4878236,5.65939024" id="Fill-4" fill="#FEFEFE"></path>
                <g id="Group-8" transform="translate(55.951220, 16.055732)" fill="#FEFEFE">
                    <path d="M15.3837122,4.89888211 L15.381948,4.89888211 C15.0837935,3.38719106 14.6356797,1.80568699 14.0623057,0.211581301 L13.5947854,0.211581301 L13.5892407,0.211581301 C14.1777366,1.84248374 14.6054358,3.42852439 14.8413382,4.89989024 L14.8418423,4.89989024 C14.9623138,5.7101748 15.025322,6.47458943 15.025322,7.1749878 C15.025322,9.39312602 14.4411106,10.9968089 13.3472894,11.6372236 C12.6531919,12.0435 11.7514195,12.0961748 10.7422813,11.7909634 C7.74309431,10.8851585 4.20707805,7.12684959 1.73413496,2.21750813 C1.53830569,1.82811789 1.35709431,1.43973577 1.1834439,1.05185772 L0.0281268293,2.96226423 C0.0475333333,3.00132927 0.0659317073,3.04064634 0.0855902439,3.07996341 C3.10065528,9.06876016 7.27280163,13.6111423 10.7153138,14.6522886 C11.8592894,14.9983293 12.8565821,14.9315407 13.6731675,14.453435 C15.0505252,13.6491992 15.7809154,11.5963943 15.7809154,8.7900122 C15.7809154,7.61327236 15.6470862,6.30169512 15.3837122,4.89888211" id="Fill-6"></path>
                </g>
                <path d="M68.1879528,12.0187756 C66.7990016,9.25977561 65.3722455,7.20117398 64.0533593,5.6683122 L63.8345951,6.0294748 C65.2187577,7.72086504 66.6054407,9.87851545 67.8708959,12.3927919 C68.4566195,13.556174 68.9652211,14.7208163 69.3956927,15.8668081 L69.8652293,15.8668081 C69.3851073,14.578922 68.8266033,13.2867512 68.1879528,12.0187756" id="Fill-9" fill="#FEFEFE"></path>
                <path d="M79.5417407,8.57104634 C79.358261,8.8923878 79.2660171,9.14442033 79.2660171,9.3271439 C79.2660171,9.76139593 79.4431959,10.1286073 79.7983098,10.4234854 C80.117635,10.6951764 80.4888789,10.8305179 80.9140577,10.8305179 C81.4176187,10.8305179 81.8921959,10.6331764 82.3398057,10.234965 C82.8264805,9.80600569 83.0651553,9.2961439 83.0651553,8.70210325 C83.0651553,8.33035528 82.962326,8.02816829 82.7468382,7.79478618 C82.4751472,7.4989 82.0595455,7.35070488 81.5000333,7.35070488 C80.660765,7.35070488 80.0069927,7.75647724 79.5417407,8.57104634" id="Fill-11" fill="#FEFEFE"></path>
                <path d="M36.5002821,18.637074 C36.2232984,19.3548626 36.0856886,19.8811065 36.0856886,20.2137894 C36.0856886,20.9467 36.3808187,21.4553016 36.9758675,21.7383341 C37.4277618,21.9608789 38.1523553,22.0700089 39.1491439,22.0700089 C40.1045992,22.0700089 41.1225585,21.7617732 42.2010057,21.1455537 C42.4424528,21.0066837 42.6627293,20.8685699 42.8676317,20.7291959 C42.9344203,20.8365618 42.9971764,20.9467 43.0758106,21.0407081 C43.6557374,21.7416106 44.5812008,22.0916837 45.853461,22.0916837 C47.0138187,22.0916837 48.0761358,21.729765 49.0376398,21.0044154 C49.8748919,20.3738301 50.5526073,19.5403585 51.069022,18.5085374 C51.4586642,17.7317732 51.6910382,16.9850008 51.7638756,16.2684724 L51.7638756,16.2679683 L48.6192659,16.2679683 C48.5807049,16.893513 48.372274,17.5261146 47.9947293,18.1660252 C47.5138512,18.9758057 46.9566073,19.3798138 46.3207293,19.3798138 C45.9663715,19.3798138 45.6931683,19.2480008 45.4991033,18.9821065 C45.3352821,18.7552772 45.2531195,18.4639276 45.2531195,18.1093179 C45.2531195,17.575765 45.4497049,16.9620659 45.8423715,16.2679683 L42.7332984,16.2679683 C42.4769813,16.9963423 42.3486967,17.7781472 42.3486967,18.6123748 C42.3486967,18.916578 42.3776805,19.1943179 42.4162415,19.4597081 L39.5440789,19.4478626 C39.6516967,18.8742366 39.8840707,18.1763585 40.242965,17.3499439 C40.4042659,16.9920577 40.5658187,16.6311472 40.7273715,16.2679683 L37.4262496,16.2679683 C37.3960057,16.3476106 37.3655098,16.4272528 37.3327455,16.5109276 C37.0539976,17.2095618 36.7770138,17.9182772 36.5002821,18.637074" id="Fill-13" fill="#FEFEFE"></path>
                <path d="M8.37405772,19.500487 C8.58072439,20.3810886 8.8567,20.9796659 9.20652114,21.2957146 C9.6511065,21.6974545 10.4114886,21.9000886 11.4808626,21.9000886 C12.7339683,21.9000886 13.7342854,21.7201374 14.4772772,21.3612431 C14.6423585,21.2818528 14.8218057,21.1775114 15.0110821,21.050487 C15.1441553,21.1737309 15.2870577,21.2863894 15.4491146,21.3803976 C16.1424561,21.7836496 17.2846675,21.9852756 18.8704561,21.9852756 C20.0489602,21.9852756 21.0946431,21.8322919 22.0090171,21.5290967 C22.7021065,21.2967228 23.3616756,20.9569829 23.9910008,20.5149179 C24.1641472,20.3831049 24.3362854,20.2472593 24.5084236,20.1134301 C24.5885699,20.6243 24.8070821,21.0343569 25.1695049,21.3322593 C25.7499358,21.8111211 26.7061472,22.0487878 28.0351146,22.0487878 C28.9341146,22.0487878 29.8540333,21.8632919 30.7865537,21.4905358 C31.5426512,21.1883488 32.238513,20.7966902 32.8761553,20.3165683 C33.4054236,19.919365 33.7507081,19.577861 33.9145293,19.2938203 L33.912765,19.2938203 C33.9863585,19.2164463 34.0680171,19.1471374 34.1340496,19.0624545 C34.4672366,18.6332431 34.8208382,17.8617715 35.1951065,16.7472837 C35.2523179,16.5766577 35.3105374,16.4193894 35.369513,16.2679179 L33.4485211,16.2679179 C33.2136268,16.8506171 32.9658789,17.4262593 32.7020008,17.9923244 C32.5081878,18.407674 32.292448,18.841926 32.060074,19.2938203 L27.5660821,19.2938203 L28.6588951,16.2679179 L25.5777976,16.2679179 C25.3837325,16.7936577 25.1906756,17.3178854 24.9956024,17.8461455 C24.7188707,18.6037553 24.5537894,19.1277309 24.4973341,19.4437797 L17.1142935,19.4437797 C17.6753179,19.2116577 18.2381065,18.9792837 18.8039195,18.7474138 C19.8823667,18.2625033 20.7357488,17.7327309 21.365074,17.1558285 C21.6793585,16.8695195 21.9351715,16.5731293 22.1375537,16.2679179 L19.0569602,16.2679179 C19.0355374,16.284552 19.0161309,16.3009341 18.9942041,16.3170642 C18.4558626,16.7208203 17.9429764,16.9791537 17.4557976,17.0923163 C17.4860415,16.7999585 17.5500577,16.5267553 17.6400333,16.2679179 L14.5899358,16.2679179 C14.2955618,17.020487 14.1458545,17.818422 14.1458545,18.6627309 C14.1458545,18.942235 14.1695455,19.1998122 14.2106268,19.4437797 L12.220326,19.4437797 C11.979887,19.4437797 11.7714561,19.2338366 11.5955374,18.8119341 C11.4881715,18.547048 11.3578707,18.0684382 11.197578,17.3753488 C11.0939927,16.9166496 11.0077976,16.5489341 10.9372285,16.2679179 L7.40524472,16.2679179 C7.62098455,16.7906333 7.8027,17.3020073 7.9476187,17.7987634 C8.07338293,18.2279748 8.2172935,18.7935358 8.37405772,19.500487" id="Fill-15" fill="#FEFEFE"></path>
                <path d="M67.3053602,21.9853764 C67.5765472,21.3041325 67.9079699,20.4988886 68.2978642,19.5709049 C68.6000512,18.8634496 68.9057667,18.1562463 69.2142545,17.4492951 C69.427726,16.9535472 69.5935634,16.5613846 69.7125228,16.2677667 L66.0459537,16.2677667 L63.7630431,21.9853764 L67.3053602,21.9853764 Z" id="Fill-19" fill="#FEFEFE"></path>
                <path d="M130.615249,17.7525154 C130.615249,18.2313772 130.537875,18.6232878 130.387411,18.9254748 C130.236192,19.229174 130.046663,19.3798894 129.818322,19.3798894 C129.610647,19.4176943 129.440273,19.4428976 129.30846,19.4512146 C129.175891,19.4610439 128.992159,19.4660846 128.759533,19.4660846 L128.405428,19.4660846 L128.085598,19.4660846 C128.012257,19.5958813 127.841883,20.0124911 127.576493,20.7123854 C127.386712,21.212922 127.221127,21.6141577 127.083769,21.9213854 L133.415078,21.9213854 C133.861176,21.9213854 134.40859,21.7358894 135.05833,21.368678 C135.556346,21.0869057 136.067468,20.7242309 136.588167,20.2801496 C137.023428,19.9119301 137.30142,19.6407431 137.420631,19.4660846 C136.742159,19.4469301 136.142826,19.4285317 135.620363,19.4093772 C135.099159,19.3892146 134.397753,19.3798894 133.518915,19.3798894 C133.609647,19.0401496 133.674672,18.7162878 133.713989,18.4083041 C133.75381,18.0995642 133.772964,17.7983854 133.772964,17.5030033 C133.772964,17.1347837 133.728354,16.7222065 133.64342,16.2677919 L130.29668,16.2677919 C130.321631,16.3844829 130.348094,16.4963854 130.378338,16.5987106 C130.535859,17.1410846 130.615249,17.5266943 130.615249,17.7525154" id="Fill-21" fill="#FEFEFE"></path>
                <path d="M75.8582098,19.5876146 C75.8582098,20.2245008 76.1195675,20.7688911 76.6412748,21.2228016 C77.2453967,21.744761 78.0934862,22.0061187 79.1822667,22.0061187 C79.9063561,22.0061187 80.6483398,21.8612 81.4039333,21.5708585 C82.021665,21.3301675 82.6464537,20.9949642 83.2750228,20.5642407 C83.4186813,20.4644358 83.5608276,20.3540455 83.7022179,20.2461756 C83.7987463,20.6947935 84.0074293,21.0594846 84.3378439,21.3321837 C84.9180228,21.8110455 85.873478,22.0489642 87.2032016,22.0489642 C88.1039659,22.0489642 89.0211122,21.8632163 89.9533805,21.4907122 C90.4166163,21.3044602 90.848348,21.0761187 91.2677301,20.8245902 L90.8236488,21.923452 C90.9239577,21.923452 91.3468683,21.9302569 92.0853236,21.9451268 C92.8260472,21.9567203 93.305665,21.9632732 93.5269496,21.9632732 C93.6083561,21.9567203 93.700348,21.954452 93.8041854,21.954452 C93.909535,21.954452 93.9652341,21.9524358 93.9710309,21.9494114 C93.9755675,21.9458829 94.2560797,21.2976553 94.8113073,20.0006959 C95.4408846,18.5341187 96.0558439,17.3782976 96.6549252,16.5302081 C96.7189415,16.4392244 96.7829577,16.3525252 96.847226,16.2678423 L93.1042911,16.2678423 L91.8839496,19.2937447 L86.7359333,19.2937447 L87.8269821,16.2678423 L84.7463886,16.2678423 C84.5523236,16.7935821 84.3592667,17.3178098 84.1649496,17.8460699 C83.8778846,18.6233382 83.7155756,19.1553789 83.6608846,19.466135 L78.9750959,19.466135 C79.1588276,19.0122244 79.3418033,18.5603301 79.5230146,18.1059154 C79.8262098,17.3513301 80.0721935,16.7393951 80.2614699,16.2678423 L77.030161,16.2678423 C76.7584699,16.9909236 76.4898033,17.7313951 76.2259252,18.5011024 C76.0994049,18.8665496 75.9754049,19.2292244 75.8582098,19.5876146" id="Fill-23" fill="#FEFEFE"></path>
                <path d="M98.713426,18.6937057 C98.581613,19.1405593 98.5002065,19.5206244 98.4666862,19.8298683 C98.4666862,19.8558276 98.4629057,19.897665 98.450052,19.9538683 L98.450052,20.068039 C98.450052,20.648974 98.7071252,21.1106976 99.2253041,21.4516976 C99.7417187,21.7929496 100.443125,21.9633236 101.33028,21.9633236 C102.320767,21.9633236 103.374011,21.6911285 104.496312,21.1479984 C104.860751,20.9713236 105.184613,20.7817951 105.487304,20.5889902 C105.697499,20.9151203 105.970198,21.1820228 106.315231,21.3803724 C107.00832,21.7836244 108.148011,21.9855024 109.735312,21.9855024 C110.913816,21.9855024 111.73645,21.8715837 112.64906,21.5688927 C113.34215,21.3342504 113.905694,20.9569577 114.516117,20.4476 C114.739166,20.2621041 114.914328,20.0970228 115.089995,19.9342098 C115.20593,19.8548195 115.335727,19.742665 115.485434,19.5826244 C115.546426,19.5324699 115.602125,19.4838276 115.669418,19.4296407 L115.619263,19.4296407 C115.755109,19.2746407 115.89902,19.098722 116.058304,18.8837382 C116.756938,17.9504618 117.421044,17.0824618 118.057678,16.2678927 L116.208263,16.2678927 C116.092833,16.4347382 115.97967,16.6005756 115.857938,16.7689333 C115.238694,17.6250878 114.52645,18.5160228 113.735824,19.4331691 L107.978141,19.4440065 C108.538158,19.2116325 109.104223,18.9792585 109.670036,18.7473886 C110.747475,18.262478 111.600605,17.7327057 112.230686,17.1558033 C112.544971,16.8694943 112.800784,16.5731041 113.002914,16.2678927 L109.923328,16.2678927 C109.901906,16.2845268 109.882751,16.3009089 109.860824,16.317039 C109.320971,16.7207951 108.809849,16.9791285 108.321662,17.0922911 C108.351906,16.7999333 108.415922,16.5267301 108.505393,16.2678927 L105.454288,16.2678927 C105.159914,17.0204618 105.010711,17.8183967 105.010711,18.6627057 C105.010711,18.9349008 105.034402,19.184413 105.07145,19.4223317 L102.531719,19.4223317 C102.246922,19.4223317 102.073524,19.3217707 102.010515,19.1203967 C101.974223,19.014039 101.938686,18.9074293 101.907686,18.8000634 C102.312198,17.7362341 102.62245,16.8959577 102.843483,16.2678927 L99.5819301,16.2678927 C99.3918976,16.7457463 99.2724341,17.0539821 99.2253041,17.1860472 C99.0166211,17.742787 98.8462472,18.2443317 98.713426,18.6937057" id="Fill-25" fill="#FEFEFE"></path>
                <path d="M119.701056,17.7525154 C119.701056,18.2313772 119.624186,18.6232878 119.473219,18.9254748 C119.321999,19.229174 119.133479,19.3798894 118.904633,19.3798894 C118.697967,19.4176943 118.525576,19.4428976 118.393763,19.4512146 C118.26069,19.4610439 118.078723,19.4660846 117.84282,19.4660846 L117.490227,19.4660846 L117.173422,19.4660846 C117.09756,19.5958813 116.92517,20.0124911 116.661796,20.7123854 C116.471007,21.212922 116.307942,21.6141577 116.169072,21.9213854 L122.499373,21.9213854 C122.946983,21.9213854 123.496414,21.7358894 124.143633,21.368678 C124.640893,21.0869057 125.152772,20.7242309 125.672967,20.2801496 C126.109235,19.9119301 126.386723,19.6407431 126.50543,19.4660846 L126.503918,19.4660846 C126.64808,19.3020114 126.800812,19.1160114 126.973454,18.8836374 C127.670828,17.950361 128.334682,17.082613 128.971568,16.2677919 L127.121902,16.2677919 C127.006219,16.4346374 126.892804,16.6007268 126.771324,16.7690846 C126.160398,17.617174 125.45143,18.4987837 124.671893,19.407361 C124.154471,19.3892146 123.465414,19.3798894 122.605227,19.3798894 C122.694446,19.0401496 122.760479,18.7162878 122.8003,18.4083041 C122.840625,18.0995642 122.859276,17.7983854 122.859276,17.5030033 C122.859276,17.1347837 122.814918,16.7222065 122.728975,16.2677919 L119.381983,16.2677919 C119.407186,16.3844829 119.43365,16.4963854 119.463893,16.5987106 C119.621414,17.1410846 119.701056,17.5266943 119.701056,17.7525154" id="Fill-27" fill="#FEFEFE"></path>
                <path d="M39.9471545,12.3160984 C39.3866341,12.3854073 38.9596911,12.4327894 38.6716179,12.4582447 C37.820252,12.5464561 37.3282846,12.5913179 37.1954634,12.5913179 C36.9877886,12.5656106 36.8474065,12.4983179 36.773561,12.3879276 C36.7027398,12.2805618 36.6661951,12.1323667 36.6661951,11.9443504 C36.6661951,11.8631959 36.6752683,11.7386919 36.6954309,11.5713423 C36.7135772,11.4024805 36.7216423,11.2769683 36.7216423,11.196822 C36.7216423,10.941765 36.6687154,10.7512285 36.5621057,10.6257163 C36.4232358,10.4646675 36.1780081,10.383513 35.8236504,10.383513 C35.2177642,10.383513 34.7426829,10.6221878 34.4034472,11.0987813 C33.9865854,11.6771959 33.7779024,12.5711553 33.7779024,13.7834317 C33.7779024,14.0778057 33.7935285,14.3535293 33.8232683,14.6080821 C33.851748,14.862887 33.8807317,15.0186431 33.9051789,15.0740902 C33.8089024,15.3399846 33.7088455,15.6043667 33.6065203,15.8672366 L35.5345691,15.8672366 C35.7644228,15.3611553 36.006878,14.9919276 36.2626911,14.7656024 C36.4320569,14.7472041 36.6954309,14.7162041 37.0523089,14.6753748 C37.4086829,14.6350496 37.7128862,14.6138789 37.9634065,14.6138789 C37.9044309,14.9057325 37.773122,15.3238545 37.5740163,15.8672366 L40.9013496,15.8672366 C40.9777154,15.6948463 41.0540813,15.5232122 41.1299431,15.3493098 C41.4260813,14.6753748 41.5727642,14.1304805 41.5727642,13.7146268 C41.5727642,13.5447569 41.4505285,13.2990252 41.2047967,12.9771797 C40.8643008,12.5366268 40.4444146,12.3160984 39.9471545,12.3160984" id="Fill-29" fill="#FEFEFE"></path>
                <path d="M11.234778,12.1659626 C11.0134935,12.4666374 10.6263715,12.6969951 10.0734122,12.8517431 C9.6890626,12.959865 8.99420894,13.0750439 7.98507073,13.2015642 L6.80379431,13.2015642 L6.95677805,12.5513203 C7.22720894,11.9739138 7.50142033,11.2641902 7.77739593,10.4224016 C7.94121707,9.92186504 8.11335528,9.60884065 8.29381057,9.48181626 C8.47224959,9.35706016 8.88583496,9.29405203 9.53431463,9.29405203 C10.2392496,9.29405203 10.7685179,9.4162878 11.1208593,9.66126341 C11.4416967,9.88632846 11.6027455,10.2265724 11.6027455,10.6774585 C11.6027455,11.3370276 11.4797537,11.8332797 11.234778,12.1659626 M15.1266642,9.86087317 C15.1266642,8.70832846 14.6339407,7.84940163 13.6505098,7.28232846 C12.7696561,6.77246667 11.5243634,6.51690569 9.9176561,6.51690569 L4.26431463,6.51690569 L3.45554228,6.51690569 L2.58224959,6.51690569 L1.38156667,9.35706016 L4.84903008,9.35706016 L2.31534715,15.8673122 L10.831778,15.8673122 C10.8252252,15.8446293 10.8184203,15.8204341 10.8121195,15.8007756 C10.7675098,15.656613 10.908648,15.5316049 11.2383065,15.4232309 C11.8444447,15.2281577 12.2686154,15.0643366 12.5143472,14.9310114 C13.1212415,14.6041252 13.6505098,14.1325724 14.1039163,13.5155967 C14.3826642,13.1249463 14.6276398,12.5238488 14.8426236,11.711548 C15.0311439,10.9874585 15.1266642,10.3697268 15.1266642,9.86087317" id="Fill-31" fill="#FEFEFE"></path>
                <path d="M50.768448,13.1858878 C50.0861959,12.4980911 49.2018138,12.1550748 48.1125293,12.1550748 C46.4874236,12.1550748 45.1095618,12.8098553 43.9824724,14.1211805 C43.5189846,14.6607821 43.1600902,15.2449935 42.8936919,15.8672618 L46.0856837,15.8672618 C46.5320333,15.2144976 47.0161878,14.8876114 47.5396593,14.8876114 C47.8920008,14.8876114 48.1634398,14.9959854 48.3481797,15.2109691 C48.4993992,15.3858797 48.5855943,15.6066602 48.6135699,15.8672618 L51.7856512,15.8672618 C51.7861553,15.837522 51.7886756,15.807026 51.7886756,15.7775382 C51.7886756,14.7363919 51.4469195,13.8731805 50.768448,13.1858878" id="Fill-33" fill="#FEFEFE"></path>
                <path d="M21.8469602,12.8427959 C21.3194561,12.4415602 20.6646756,12.2396821 19.885139,12.2396821 C18.3311065,12.2396821 16.9766837,12.9083244 15.8246431,14.2408203 C15.3808138,14.7547146 15.0287244,15.2975927 14.7608138,15.8671862 L17.8058707,15.8671862 C17.8217488,15.835178 17.8351065,15.8021618 17.8519927,15.7706577 C18.1443504,15.2303 18.5861634,14.7836984 19.1746593,14.4303488 C19.2548057,14.3983407 19.3175618,14.3791862 19.357635,14.3683488 C19.3987163,14.3585195 19.4660089,14.3534789 19.5580008,14.3534789 C19.7092203,14.3534789 19.8284317,14.3801943 19.9151309,14.4303488 C19.9844398,14.4868041 20.0343423,14.5470398 20.0618138,14.6095439 C20.0890333,14.672552 20.1036512,14.7380805 20.1036512,14.8083976 C20.1036512,14.8709016 20.1001228,14.9157634 20.094578,14.9412187 C20.0141797,15.2489504 19.8175943,15.5576902 19.5091065,15.8671862 L22.3669033,15.8671862 C22.5803748,15.4354545 22.6884967,14.9865846 22.6884967,14.5203244 C22.6884967,13.8302593 22.4069764,13.2704951 21.8469602,12.8427959" id="Fill-35" fill="#FEFEFE"></path>
                <path d="M30.902287,10.1521472 C31.2531163,9.22466748 31.4461732,8.68178943 31.4781813,8.52628537 L28.7080919,8.52628537 C28.5324252,9.02203333 28.259222,9.72772439 27.8884821,10.6428545 C27.5716772,11.4158382 27.3229211,12.0123992 27.1417098,12.4327894 C26.5842138,12.4327894 26.1151813,12.4441309 25.7308317,12.4647976 C25.345474,12.4859683 25.0294252,12.4978138 24.7834415,12.4978138 C24.6395309,12.8247 24.454539,13.2445862 24.2269537,13.7554561 C24.0648967,14.1279602 23.888978,14.5405374 23.7014659,14.994952 L26.0448642,14.994952 C25.9380024,15.2847894 25.8301325,15.5766431 25.7230187,15.8672366 L28.8010919,15.8672366 L29.1161325,14.994952 C29.2665959,14.994952 29.8276203,14.9785699 30.7994577,14.9422772 C30.9925146,14.9339602 31.3231813,14.9299276 31.7904496,14.9299276 C31.9535146,14.5667488 32.0946528,14.2093667 32.2148724,13.8562691 C32.2831732,13.6422935 32.4434659,13.1682203 32.6975146,12.4327894 L29.9662382,12.4327894 C30.204661,11.9216675 30.5161732,11.1622935 30.902287,10.1521472" id="Fill-37" fill="#FEFEFE"></path>
                <path d="M71.0584016,13.1381528 L72.3908976,9.42268943 L78.2771171,9.42268943 C78.3648244,9.15780325 78.5719951,8.60207154 78.9003935,7.75625041 C79.0397675,7.40441301 79.1824179,6.99032358 79.3341415,6.5170065 L70.2234179,6.5170065 C69.6628976,7.84042927 69.2581333,8.79638862 69.0126537,9.38816098 C68.7235724,10.0875512 68.4632228,10.7231772 68.2288325,11.2952911 C68.1207106,11.5599252 67.8883366,12.1456488 67.527426,13.0524618 L64.4090276,13.0524618 C64.2331089,13.5436732 64.0773528,13.9779252 63.9427675,14.3519415 C63.8134748,14.7040309 63.6373041,15.2111203 63.411987,15.867161 L75.5539057,15.867161 L76.6310927,13.1381528 L71.0584016,13.1381528 Z" id="Fill-39" fill="#FEFEFE"></path>
                <path d="M133.528871,15.6816146 C133.193667,14.3032488 133.028838,13.4080293 133.028838,12.9924276 C133.028838,12.8616228 133.055302,12.4951675 133.112009,11.8986065 C133.130155,11.6962244 133.140993,11.4767041 133.140993,11.2375252 L129.852724,11.2375252 C129.436367,12.1965089 129.073944,12.9677285 128.766464,13.5537041 C128.373293,14.2924114 127.914846,15.0500211 127.393643,15.8257772 L129.279098,15.8257772 C129.520798,15.5190537 129.75796,15.2214033 129.990586,14.932826 C130.016798,14.9648341 130.044269,15.0422081 130.076277,15.1652 C130.104757,15.2879398 130.140798,15.3597691 130.172806,15.3779154 C130.187172,15.5359398 130.206074,15.6836309 130.226993,15.8257772 L133.560123,15.8257772 C133.549033,15.777135 133.540716,15.730761 133.528871,15.6816146" id="Fill-41" fill="#FEFEFE"></path>
                <path d="M122.112579,12.9924528 C122.112579,12.8613959 122.140554,12.4951927 122.197262,11.8986317 C122.217928,11.6962496 122.226246,11.4767293 122.226246,11.2375504 L118.938481,11.2375504 C118.521115,12.1965341 118.158693,12.9677537 117.849701,13.5537293 C117.458042,14.2924366 117.000099,15.0500463 116.479652,15.8258024 L118.365107,15.8258024 C118.606554,15.5190789 118.843465,15.2214285 119.075839,14.9328512 C119.102554,14.9648593 119.131538,15.0422333 119.160522,15.1652252 C119.19253,15.287713 119.224034,15.3597943 119.256042,15.3779407 C119.271164,15.535965 119.290571,15.6836561 119.311741,15.8258024 L122.644367,15.8258024 C122.633278,15.7771602 122.624709,15.7307862 122.612611,15.6816398 C122.279928,14.303274 122.112579,13.4078024 122.112579,12.9924528" id="Fill-43" fill="#FEFEFE"></path>
                <path d="M112.713555,12.8014374 C112.184287,12.4002016 111.530767,12.1983236 110.750978,12.1983236 C109.194929,12.1983236 107.841767,12.8669659 106.691238,14.1994618 C106.246149,14.712852 105.893303,15.2562341 105.625393,15.8258276 L108.669693,15.8258276 C108.685572,15.7938195 108.698677,15.7602992 108.715563,15.7292992 C109.009433,15.1889415 109.45049,14.7423398 110.037726,14.3889902 C110.121905,14.3569821 110.182393,14.3378276 110.222718,14.3269902 C110.262539,14.317161 110.3321,14.3121203 110.426108,14.3121203 C110.57632,14.3121203 110.693263,14.3388358 110.78097,14.3889902 C110.850279,14.4454455 110.901189,14.5056813 110.925637,14.5681854 C110.95462,14.6311935 110.970498,14.696722 110.970498,14.767039 C110.970498,14.8295431 110.966466,14.8744049 110.959157,14.8998602 C110.879263,15.2075919 110.682173,15.5158276 110.374441,15.8258276 L113.232238,15.8258276 C113.445458,15.3940959 113.553328,14.945226 113.553328,14.4789659 C113.553328,13.7889008 113.274328,13.2291366 112.713555,12.8014374" id="Fill-45" fill="#FEFEFE"></path>
                <path d="M77.2080959,15.7426569 C77.1977626,15.7696244 77.1874293,15.7983561 77.1770959,15.8258276 L80.4194943,15.8258276 C80.564665,15.464161 80.6596813,15.2257382 80.703535,15.1156 C81.1713073,13.9325593 81.5359984,12.9889496 81.8021447,12.2845187 L78.6262829,12.2845187 C78.1474211,13.3690146 77.6743561,14.5208033 77.2080959,15.7426569" id="Fill-47" fill="#FEFEFE"></path>
                <path d="M102.935954,12.5454732 C102.571767,12.2427821 101.957815,12.0915626 101.09536,12.0915626 C100.401767,12.0915626 99.7598398,12.1822943 99.1678154,12.3599772 C98.7517098,12.4996033 98.3746691,12.6848472 98.0321569,12.916213 C97.8643033,13.0490341 97.6959455,13.1785789 97.5321244,13.3050992 C97.6152951,13.0397089 97.6702382,12.8378309 97.7022463,12.6946764 C97.7322382,12.5542943 97.7687829,12.3884569 97.8060837,12.1984244 L94.7257423,12.1984244 L93.2629455,15.8259285 L97.1664252,15.8259285 C97.8585065,15.031774 98.5422707,14.6340667 99.2144415,14.6340667 C99.4911732,14.6340667 99.6870024,14.6930423 99.8016772,14.8142699 C99.8893846,14.9029854 99.931222,15.0254732 99.931222,15.1829935 C99.931222,15.2533106 99.9281976,15.3120341 99.9150919,15.3596683 C99.9012301,15.4065463 99.8893846,15.4491398 99.8755228,15.4861886 C99.8273846,15.6059041 99.7820187,15.7185626 99.7391732,15.8259285 L102.979807,15.8259285 C103.027946,15.6835301 103.072051,15.5517171 103.107336,15.4408228 C103.327864,14.7434488 103.438002,14.2187171 103.438002,13.8661236 C103.438002,13.2622537 103.270149,12.8217008 102.935954,12.5454732" id="Fill-49" fill="#FEFEFE"></path>
                <path d="M90.0695171,10.1108138 C90.4223626,9.18333415 90.6134033,8.6404561 90.6464195,8.48495203 L87.8765821,8.48495203 C87.6999073,8.9807 87.4272081,9.68639106 87.0549561,10.6015211 C86.7404195,11.3745049 86.4909073,11.9710659 86.3076797,12.3914561 C85.7534602,12.3914561 85.2824114,12.4027976 84.8973057,12.4234642 C84.5134602,12.444635 84.1964033,12.4564805 83.9514276,12.4564805 C83.807013,12.7833667 83.6230293,13.2032528 83.395948,13.7141228 C83.2341431,14.0866268 83.0579724,14.4992041 82.8679398,14.9536187 L85.2123463,14.9536187 C85.1064927,15.242952 84.9981187,15.5353098 84.8912569,15.8259033 L87.969078,15.8259033 L88.2836146,14.9536187 C88.4365984,14.9536187 88.9968667,14.9372366 89.9656797,14.9009439 C90.1605008,14.8926268 90.4914195,14.8885943 90.9579317,14.8885943 C91.1209967,14.5254154 91.2636472,14.1680333 91.3838667,13.8149358 C91.4521675,13.6009602 91.6137203,13.126887 91.8647447,12.3914561 L89.1332163,12.3914561 C89.3728992,11.8803341 89.6851675,11.1209602 90.0695171,10.1108138" id="Fill-51" fill="#FEFEFE"></path>
                <g id="Group-55" transform="translate(0.000000, 16.055732)">
                    <mask id="mask-4" fill="white">
                        <use xlink:href="#path-3"></use>
                    </mask>
                    <g id="Clip-54"></g>
                    <polygon id="Fill-53" fill="#FEFEFE" mask="url(#mask-4)" points="3.2317626 5.828 5.69664065 0.154243902 2.2080065 0.154243902 -5.04065041e-05 5.828"></polygon>
                </g>
            </g>
        </g>
    </g>
</svg>