<?xml version="1.0" encoding="UTF-8" standalone="no"?>
<svg width="179px" height="20px" viewBox="0 0 179 20" version="1.1" xmlns="http://www.w3.org/2000/svg" xmlns:xlink="http://www.w3.org/1999/xlink">
    <!-- Generator: Sketch 46.2 (44496) - http://www.bohemiancoding.com/sketch -->
    <title>logo_msh_white_lg</title>
    <desc>Created with Sketch.</desc>
    <defs>
        <polygon id="path-1" points="10.3899499 0 0.00769340974 0 0.00769340974 19.9923567 20.7722063 19.9923567 20.7722063 0"></polygon>
    </defs>
    <g id="Final-Comps" stroke="none" stroke-width="1" fill="none" fill-rule="evenodd">
        <g id="10-Case-Study-RF" transform="translate(-99.000000, -313.000000)">
            <g id="logo_msh_white_lg" transform="translate(99.000000, 313.000000)">
                <g id="Group-5">
                    <mask id="mask-2" fill="white">
                        <use xlink:href="#path-1"></use>
                    </mask>
                    <g id="Clip-2"></g>
                    <path d="M11.9487629,18.2058599 L13.8481375,18.2058599 L13.8481375,4.20382166 L7.43606519,4.20382166 C7.15448639,4.20382166 6.92406877,4.43248408 6.92406877,4.71464968 L6.92406877,18.2058599 L8.82331519,18.2058599 L10.224798,19.9180892 C10.3134004,20.0263694 10.458293,20.026879 10.5474083,19.9180892 L11.9487629,18.2058599" id="Fill-1" fill="#E26358" mask="url(#mask-2)"></path>
                    <path d="M5.02482235,18.2063694 L6.92406877,18.2063694 L6.92406877,8.40764331 L0.511996418,8.40764331 C0.230417622,8.40764331 0,8.63579618 0,8.91719745 L0,17.6966879 C0,17.9785987 0.22926361,18.2063694 0.511996418,18.2063694 L1.89937464,18.2063694 L3.30072923,19.9180892 C3.38933166,20.0263694 3.53422421,20.026879 3.62333954,19.9180892 L5.02482235,18.2063694" id="Fill-3" fill="#373A45" mask="url(#mask-2)"></path>
                    <path d="M18.8729599,18.2056051 L20.2602099,18.2056051 C20.5417887,18.2056051 20.7722063,17.9769427 20.7722063,17.6947771 L20.7722063,0.510700637 C20.7722063,0.226878981 20.5429427,0 20.2602099,0 L14.360134,0 C14.0785552,0 13.8481375,0.22866242 13.8481375,0.510700637 L13.8481375,18.2056051 L15.7475122,18.2056051 L17.1488668,19.9180892 C17.238495,20.0276433 17.3823617,20.0270064 17.4714771,19.9180892 L18.8729599,18.2056051" id="Fill-4" fill="#4A94C4" mask="url(#mask-2)"></path>
                </g>
                <path d="M74.8289241,9.43821656 C74.5432421,9.06076433 74.1680602,8.75273885 73.7033782,8.5143949 C73.2379269,8.27592357 72.6733589,8.15694268 72.0094176,8.15694268 C71.9942872,8.15694268 71.9794133,8.15745223 71.9645394,8.15770701 C71.9422285,8.15732484 71.9200458,8.15694268 71.8974785,8.15694268 C71.5519162,8.15694268 71.2263567,8.20318471 70.9208001,8.29605096 C70.6153718,8.38866242 70.3332801,8.5077707 70.0742686,8.6533758 C69.8147443,8.79936306 69.5889427,8.97464968 69.3967357,9.18 C69.2401748,9.34687898 69.1082328,9.51579618 69.0000122,9.6866242 L69.0000122,8.95923567 C69.0000122,8.66980892 68.7647221,8.43477707 68.4740394,8.43477707 L66.2458997,8.43477707 C65.9553453,8.43477707 65.7199269,8.66980892 65.7199269,8.95923567 L65.7199269,17.8044586 C65.7199269,18.0938854 65.9553453,18.3287898 66.2458997,18.3287898 L68.5935437,18.3287898 C68.8840981,18.3287898 69.1196447,18.0938854 69.1196447,17.8044586 L69.1196447,12.9647134 C69.1196447,12.6866242 69.1561884,12.4183439 69.2295322,12.16 C69.302235,11.9016561 69.411866,11.673121 69.5582973,11.4745223 C69.7040874,11.2757962 69.8869341,11.1203822 70.1063245,11.0077707 C70.3110974,10.9025478 70.5484391,10.8471338 70.8173238,10.8402548 C71.0844133,10.8471338 71.3088044,10.9025478 71.4889585,11.0077707 C71.6811655,11.1203822 71.8309305,11.2728662 71.937356,11.464586 C72.0435251,11.6566879 72.1198181,11.8787261 72.1666196,12.1303185 C72.2127801,12.3820382 72.2363732,12.6467516 72.2363732,12.9248408 L72.2363732,17.8044586 C72.2363732,18.0938854 72.4719198,18.3287898 72.7624742,18.3287898 L75.1101182,18.3287898 C75.4006726,18.3287898 75.636091,18.0938854 75.636091,17.8044586 L75.636091,12.2096815 C75.636091,11.7196178 75.573005,11.2296815 75.4467049,10.7396178 C75.320533,10.2495541 75.114606,9.81566879 74.8289241,9.43821656" id="Fill-6" fill="#FFFFFF"></path>
                <path d="M62.522033,3.43949045 C61.512914,3.43949045 60.6948481,4.25528662 60.6948481,5.26152866 C60.6948481,6.26789809 61.512914,7.08356688 62.522033,7.08356688 C63.5310236,7.08356688 64.3490895,6.26789809 64.3490895,5.26152866 C64.3490895,4.25528662 63.5310236,3.43949045 62.522033,3.43949045" id="Fill-7" fill="#FFFFFF"></path>
                <g id="Group-11" transform="translate(81.037249, 3.949045)" fill="#FFFFFF">
                    <path d="M5.05567734,14.7770701 C4.04983125,14.7740135 3.07725547,14.5986433 2.13704729,14.2509596 C1.38898151,13.9743408 0.740855556,13.6051337 0.192540487,13.1433384 C-0.04460707,12.9436431 -0.0674320388,12.5897188 0.150501279,12.3697738 L1.6328347,10.8744788 C1.7359984,10.7704284 1.8724324,10.7179575 2.00899535,10.7179575 C2.13743415,10.7179575 2.26600192,10.7641879 2.36748921,10.857413 C2.65505802,11.1216782 2.9958851,11.3524485 3.38958357,11.5495967 C3.95737079,11.834621 4.52180519,11.9768784 5.08301572,11.9768784 C5.33679842,11.9768784 5.58426235,11.9502608 5.82489168,11.8974078 C6.06513415,11.8445548 6.2755881,11.7583343 6.45599562,11.6391284 C6.63627418,11.5199226 6.77967173,11.3611088 6.88670407,11.1625597 C6.99373641,10.9638832 7.04738153,10.7255989 7.04738153,10.4474518 C7.04738153,10.1826773 6.98019617,9.95763798 6.84685709,9.77220663 C6.71300219,9.58677528 6.52253621,9.41777295 6.2755881,9.26558169 C6.02838208,9.1135178 5.72095425,8.97444429 5.35369148,8.84836116 C4.98604184,8.72278746 4.56861571,8.58702522 4.10128415,8.44132916 C3.64671909,8.2956331 3.20247041,8.1235742 2.76853809,7.92489776 C2.33408996,7.72634867 1.94671026,7.47150792 1.60575423,7.1601208 C1.26531402,6.8492431 0.991414394,6.47188521 0.78418431,6.02804713 C0.576954227,5.58446376 0.473661571,5.04485344 0.473661571,4.40934352 C0.473661571,3.62813755 0.633823217,2.95926018 0.954662326,2.40334821 C1.27537248,1.84705416 1.69628038,1.39022569 2.21725707,1.03260809 C2.73823376,0.675117845 3.32613789,0.413781905 3.98084053,0.2482182 C4.63528526,0.0826544956 5.29669353,0 5.96480745,0 C6.76664731,0 7.58486441,0.145823417 8.42010352,0.436833467 C9.05804206,0.659580328 9.63550087,0.963198691 10.1528668,1.34832534 C10.4085839,1.53859624 10.4461097,1.90410996 10.2259841,2.13411615 L8.69722702,3.73257004 C8.62630197,3.80694635 8.529586,3.84528072 8.43338585,3.84528072 C8.34608357,3.84528072 8.25929711,3.81369626 8.19262756,3.74836227 C7.93820009,3.49874315 7.63309344,3.29204323 7.27769449,3.12813516 C6.80327043,2.90971843 6.34573941,2.80031903 5.90471459,2.80031903 C5.67749654,2.80031903 5.44692567,2.82018667 5.21325989,2.86004932 C4.97959411,2.89952989 4.76914016,2.97607127 4.5822849,3.08827252 C4.39504279,3.20098319 4.2378471,3.3465519 4.1110847,3.5253607 C3.98393544,3.7041695 3.92061872,3.93252005 3.92061872,4.21053972 C3.92061872,4.44920617 3.97078207,4.64750055 4.07123772,4.8064417 C4.17117756,4.96551021 4.31818583,5.10445637 4.51200463,5.22340752 C4.70543657,5.3428681 4.93600744,5.45201279 5.20371725,5.5510963 C5.47039541,5.6508166 5.77124655,5.75333874 6.10523904,5.85904479 C6.58611084,6.01811331 7.08722851,6.19373819 7.60846311,6.38566473 C8.12931084,6.57759127 8.60360596,6.83243202 9.03147741,7.15031433 C9.45870408,7.46806929 9.81281348,7.86223826 10.0934187,8.33205711 C10.374024,8.80225803 10.5143266,9.38809884 10.5143266,10.0898342 C10.5143266,10.8976578 10.3639656,11.5962092 10.0633723,12.1853613 C9.76277909,12.7746407 9.35850634,13.261398 8.85081197,13.6452511 C8.3428597,14.0293589 7.76179016,14.3141285 7.10734543,14.4993051 C6.46063798,14.6823167 5.79394257,14.774905 5.10803291,14.7770701 L5.05567734,14.7770701 Z" id="Fill-9"></path>
                </g>
                <path d="M58.8320172,8.50573248 L56.8826354,8.50573248 C56.5934914,8.50573248 56.3588424,8.73936306 56.3588424,9.02789809 L56.3588424,9.79171975 L56.3193496,9.79171975 C56.00174,9.29031847 55.5485981,8.90458599 54.9597958,8.63414013 C54.3715064,8.36394904 53.7461605,8.22866242 53.0841426,8.22866242 C52.3433954,8.22866242 51.6820186,8.37388535 51.0996275,8.66394904 C50.5174928,8.95401274 50.0247299,9.33974522 49.6209542,9.82140127 C49.2178195,10.3028025 48.9100831,10.8602548 48.6981297,11.4933758 C48.4868173,12.1266242 48.3809047,12.7859873 48.3809047,13.4721019 C48.3809047,14.157707 48.4896383,14.8141401 48.7081311,15.4408917 C48.9263675,16.0670064 49.2373095,16.6180892 49.6410852,17.0929936 C50.0446046,17.5678981 50.5339054,17.943949 51.1096289,18.2208917 C51.6849678,18.497707 52.3301884,18.6363057 53.0445215,18.6363057 C53.7723181,18.6363057 54.3875344,18.497707 54.8902987,18.2208917 C55.3933195,17.943949 55.7833754,17.6401274 56.0612357,17.3105732 L56.100985,17.3105732 L56.100985,17.7974522 C56.100985,18.0859873 56.3355057,18.3197452 56.6249062,18.3197452 L58.8320172,18.3197452 C59.1212894,18.3197452 59.3559384,18.0859873 59.3559384,17.7974522 L59.3559384,9.02789809 C59.3559384,8.73936306 59.1212894,8.50573248 58.8320172,8.50573248 M56.0712371,14.3824204 C55.9589133,14.6854777 55.8001726,14.956051 55.5948868,15.1935032 C55.3899857,15.4309554 55.1418732,15.6220382 54.8505494,15.7673885 C54.5597385,15.9122293 54.2287937,15.9848408 53.8582278,15.9848408 C53.4745831,15.9848408 53.1372271,15.9122293 52.8461597,15.7673885 C52.5552206,15.6220382 52.3103138,15.4340127 52.111952,15.2034395 C51.9133338,14.9723567 51.7643381,14.7053503 51.6654778,14.4020382 C51.5658481,14.0984713 51.5163539,13.788535 51.5163539,13.4721019 C51.5163539,13.1555414 51.5658481,12.8420382 51.6654778,12.5322293 C51.7643381,12.2221656 51.9133338,11.948535 52.111952,11.7109554 C52.3103138,11.473758 52.5552206,11.282293 52.8461597,11.1371975 C53.1372271,10.9919745 53.4745831,10.9196178 53.8582278,10.9196178 C54.2287937,10.9196178 54.5597385,10.9919745 54.8505494,11.1371975 C55.1418732,11.282293 55.3899857,11.473758 55.5948868,11.7109554 C55.8001726,11.948535 55.9589133,12.2185987 56.0712371,12.5224204 C56.1836891,12.8254777 56.239851,13.1355414 56.239851,13.4522293 C56.239851,13.7689172 56.1836891,14.0785987 56.0712371,14.3824204" id="Fill-12" fill="#FFFFFF"></path>
                <path d="M46.5685938,4.26267516 L42.8755007,4.28203822 C42.6431597,4.28318471 42.4288983,4.42318471 42.3502973,4.64127389 L42.3400394,4.67235669 L39.0467471,13.2487898 C39.0390537,13.2689172 39.019692,13.2821656 38.9981504,13.2821656 C38.9766089,13.2821656 38.9572471,13.2689172 38.9495537,13.2487898 L35.6562615,4.67235669 L35.6461318,4.64127389 C35.5675308,4.42318471 35.3531411,4.28318471 35.1208001,4.28203822 L31.427707,4.26267516 C31.1372808,4.26267516 30.9018625,4.49745223 30.9018625,4.78713376 L30.9018625,17.8043312 C30.9018625,18.0940127 31.137409,18.3287898 31.4278352,18.3287898 L33.5801948,18.3287898 C33.872288,18.3287898 34.1084756,18.091465 34.1060394,17.8002548 L34.0309004,8.76012739 C34.0307722,8.74076433 34.0465437,8.72496815 34.0659054,8.72496815 C34.0805229,8.72496815 34.0936017,8.73401274 34.0987307,8.7477707 L37.5511483,18.0335032 C37.6150036,18.2052229 37.8306755,18.3287898 38.0092908,18.3287898 L39.9871383,18.3287898 C40.1656254,18.3287898 40.3812973,18.2052229 40.4451526,18.0335032 L43.8976984,8.7477707 C43.9026991,8.73401274 43.9157779,8.72496815 43.9303954,8.72496815 C43.9498854,8.72496815 43.9655287,8.74076433 43.9654004,8.76012739 L43.8902615,17.8002548 C43.8878252,18.091465 44.1240129,18.3287898 44.416106,18.3287898 L46.5684656,18.3287898 C46.8590201,18.3287898 47.0944384,18.0940127 47.0944384,17.8043312 L47.0944384,4.78713376 C47.0944384,4.49745223 46.8590201,4.26267516 46.5685938,4.26267516" id="Fill-13" fill="#FFFFFF"></path>
                <path d="M63.5902629,8.43477707 L61.502015,8.43477707 C61.2114606,8.43477707 60.9760423,8.66980892 60.9760423,8.95923567 L60.9760423,17.8044586 C60.9760423,18.0938854 61.2114606,18.3287898 61.502015,18.3287898 L63.5902629,18.3287898 C63.8808173,18.3287898 64.1163639,18.0938854 64.1163639,17.8044586 L64.1163639,8.95923567 C64.1163639,8.66980892 63.8808173,8.43477707 63.5902629,8.43477707" id="Fill-14" fill="#FFFFFF"></path>
                <path d="M136.35543,8.43490446 L134.550043,8.43490446 L134.550043,6.3566879 C134.550043,6.06713376 134.314112,5.83235669 134.023044,5.83235669 L131.867607,5.83235669 C131.57654,5.83235669 131.340609,6.06713376 131.340609,6.3566879 L131.340609,8.43490446 L130.293023,8.43490446 C130.001956,8.43490446 129.767307,8.66980892 129.767307,8.95936306 L129.767307,10.3342675 C129.767307,10.6238217 130.001956,10.8587261 130.293023,10.8587261 L131.361125,10.8587261 L131.361125,15.0416561 C131.361125,15.5728662 131.42139,16.0542675 131.540638,16.4857325 C131.659885,16.9171975 131.856067,17.289172 132.127901,17.6010191 C132.401017,17.9133758 132.762607,18.1524841 133.215236,18.3182166 C133.666583,18.483949 134.224355,18.5671338 134.888553,18.5671338 C135.233474,18.5671338 135.579678,18.5374522 135.924599,18.4778344 C136.146426,18.4396178 136.342607,18.3973248 136.515709,18.350828 C136.672142,18.3087898 136.77985,18.1678981 136.777285,18.0066242 L136.749076,16.3350318 C136.745229,16.1206369 136.552894,15.9619108 136.340043,15.9970701 C136.324656,15.9994904 136.309269,16.0020382 136.293883,16.0043312 C136.11437,16.0309554 135.945115,16.043949 135.784835,16.043949 C135.320666,16.043949 134.997543,15.9278981 134.819312,15.6952866 C134.639799,15.4621656 134.550043,15.1132484 134.550043,14.6481529 L134.550043,10.8587261 L136.35543,10.8587261 C136.645215,10.8587261 136.881146,10.6238217 136.881146,10.3342675 L136.881146,8.95936306 C136.881146,8.66980892 136.645215,8.43490446 136.35543,8.43490446" id="Fill-15" fill="#FFFFFF"></path>
                <path d="M154.401605,4.26267516 L152.046139,4.26267516 C151.756354,4.26267516 151.520423,4.49745223 151.520423,4.78713376 L151.520423,9.33235669 L146.020917,9.33235669 L146.020917,4.78713376 C146.020917,4.49745223 145.784986,4.26267516 145.495201,4.26267516 L143.138453,4.26267516 C142.848668,4.26267516 142.612736,4.49745223 142.612736,4.78713376 L142.612736,17.8044586 C142.612736,18.0938854 142.848668,18.3287898 143.138453,18.3287898 L145.495201,18.3287898 C145.784986,18.3287898 146.020917,18.0938854 146.020917,17.8044586 L146.020917,12.193121 L151.520423,12.193121 L151.520423,17.8044586 C151.520423,18.0938854 151.756354,18.3287898 152.046139,18.3287898 L154.401605,18.3287898 C154.692672,18.3287898 154.928603,18.0938854 154.928603,17.8044586 L154.928603,4.78713376 C154.928603,4.49745223 154.692672,4.26267516 154.401605,4.26267516" id="Fill-16" fill="#FFFFFF"></path>
                <path d="M165.789133,8.43477707 L163.573431,8.43477707 C163.282364,8.43477707 163.047715,8.66980892 163.047715,8.95923567 L163.047715,13.7793631 C163.047715,14.3486624 162.897693,14.8453503 162.598933,15.2692994 C162.300172,15.6932484 161.864212,15.9050955 161.293617,15.9050955 C160.988446,15.9050955 160.742256,15.8487898 160.556332,15.736051 C160.370408,15.6235669 160.220387,15.4678981 160.10755,15.2692994 C159.994713,15.0705732 159.919062,14.8453503 159.879312,14.5938854 C159.839563,14.3421656 159.819047,14.0773248 159.819047,13.7991083 L159.819047,8.95923567 C159.819047,8.66980892 159.584398,8.43477707 159.293331,8.43477707 L157.057113,8.43477707 C156.766046,8.43477707 156.531397,8.66980892 156.531397,8.95923567 L156.531397,14.5540127 C156.531397,15.0574522 156.594226,15.5507006 156.719885,16.0340127 C156.846827,16.517707 157.051984,16.9481529 157.337923,17.3254777 C157.623861,17.7029299 157.995709,18.010828 158.453467,18.2492994 C158.912507,18.4877707 159.474126,18.606879 160.138324,18.606879 C160.483245,18.606879 160.811497,18.5602548 161.124362,18.4678981 C161.435946,18.3751592 161.721884,18.256051 161.980895,18.1101911 C162.239907,17.9647134 162.46558,17.7924841 162.659198,17.593758 C162.851533,17.3949045 163.007966,17.1833121 163.127213,16.9578344 L163.166963,16.9578344 L163.166963,17.8044586 C163.166963,18.0938854 163.402894,18.3287898 163.692679,18.3287898 L165.789133,18.3287898 C166.080201,18.3287898 166.316132,18.0938854 166.316132,17.8044586 L166.316132,8.95923567 C166.316132,8.66980892 166.080201,8.43477707 165.789133,8.43477707" id="Fill-17" fill="#FFFFFF"></path>
                <path d="M98.6128438,8.43490446 L96.8073288,8.43490446 L96.8073288,6.3566879 C96.8073288,6.06713376 96.5719105,5.83235669 96.281356,5.83235669 L94.1248933,5.83235669 C93.834467,5.83235669 93.5989205,6.06713376 93.5989205,6.3566879 L93.5989205,8.43490446 L92.5508216,8.43490446 C92.260139,8.43490446 92.0248489,8.66980892 92.0248489,8.95936306 L92.0248489,10.3342675 C92.0248489,10.6238217 92.260139,10.8587261 92.5508216,10.8587261 L93.6189234,10.8587261 L93.6189234,15.0416561 C93.6189234,15.5728662 93.6786755,16.0542675 93.798308,16.4857325 C93.9180688,16.9171975 94.113866,17.289172 94.3860845,17.6010191 C94.658303,17.9133758 95.0205344,18.1524841 95.472394,18.3182166 C95.9238689,18.483949 96.4818976,18.5671338 97.1460953,18.5671338 C97.4915294,18.5671338 97.8368352,18.5374522 98.1823976,18.4778344 C98.4035831,18.4396178 98.6006626,18.3973248 98.772995,18.350828 C98.9292994,18.3087898 99.0376483,18.1678981 99.0349556,18.0066242 L99.0070029,16.3350318 C99.0032844,16.1206369 98.8101798,15.9619108 98.5978417,15.9970701 C98.5823266,15.9994904 98.5668116,16.0020382 98.5510401,16.0043312 C98.3717837,16.0309554 98.2024004,16.043949 98.0428904,16.043949 C97.577952,16.043949 97.2558546,15.9278981 97.0764699,15.6952866 C96.8972135,15.4621656 96.8073288,15.1132484 96.8073288,14.6481529 L96.8073288,10.8587261 L98.6128438,10.8587261 C98.9033983,10.8587261 99.1388166,10.6238217 99.1388166,10.3342675 L99.1388166,8.95936306 C99.1388166,8.66980892 98.9033983,8.43490446 98.6128438,8.43490446" id="Fill-18" fill="#FFFFFF"></path>
                <path d="M178.642256,11.3650955 C178.422994,10.7363057 178.111411,10.1833121 177.706225,9.70649682 C177.301039,9.22955414 176.80866,8.85197452 176.231655,8.57388535 C175.653367,8.29592357 175.005838,8.15681529 174.287787,8.15681529 C173.556913,8.15681529 172.940158,8.29592357 172.434957,8.57388535 C171.929756,8.85197452 171.538675,9.15707006 171.259148,9.48789809 L171.219398,9.48789809 L171.219398,4.70764331 C171.219398,4.41783439 170.983467,4.1833121 170.693682,4.1833121 L168.476698,4.1833121 C168.186913,4.1833121 167.950981,4.41783439 167.950981,4.70764331 L167.950981,17.8043312 C167.950981,18.0940127 168.186913,18.3287898 168.476698,18.3287898 L170.43467,18.3287898 C170.724456,18.3287898 170.960387,18.0940127 170.960387,17.8043312 L170.960387,17.0375796 L171.000136,17.0375796 C171.319413,17.5408917 171.773324,17.9282803 172.365716,18.1996178 C172.955544,18.4710828 173.58384,18.606879 174.248037,18.606879 C174.991734,18.606879 175.655931,18.4608917 176.24063,18.1699363 C176.82533,17.8785987 177.320272,17.4913376 177.725458,17.0076433 C178.130645,16.5243312 178.439663,15.964586 178.652514,15.3289172 C178.864083,14.693121 178.970509,14.0309554 178.970509,13.3420382 C178.970509,12.653758 178.861519,11.9945223 178.642256,11.3650955 M175.6726,14.2858599 C175.573868,14.5971975 175.423847,14.8719745 175.2251,15.1103185 C175.025072,15.3486624 174.778883,15.5407643 174.487815,15.6864968 C174.195466,15.8322293 173.855673,15.9049682 173.471003,15.9049682 C173.099155,15.9049682 172.767056,15.8322293 172.474706,15.6864968 C172.182357,15.5407643 171.933603,15.3486624 171.727163,15.1103185 C171.520723,14.8719745 171.361726,14.6006369 171.24889,14.2956688 C171.136053,13.9913376 171.079635,13.68 171.079635,13.3620382 C171.079635,13.0440764 171.136053,12.733121 171.24889,12.4280255 C171.361726,12.1236943 171.520723,11.8521019 171.727163,11.6136306 C171.933603,11.3752866 172.182357,11.1833121 172.474706,11.0373248 C172.767056,10.8919745 173.099155,10.8189809 173.471003,10.8189809 C173.855673,10.8189809 174.195466,10.8919745 174.487815,11.0373248 C174.778883,11.1833121 175.025072,11.3721019 175.2251,11.6036943 C175.423847,11.8356688 175.573868,12.1038217 175.6726,12.4082803 C175.772615,12.713121 175.822622,13.0243312 175.822622,13.3420382 C175.822622,13.6598726 175.772615,13.9746497 175.6726,14.2858599" id="Fill-19" fill="#FFFFFF"></path>
                <path d="M106.940575,8.1766879 C106.814019,8.16369427 106.684641,8.15681529 106.55193,8.15681529 C105.940688,8.15681529 105.402534,8.31694268 104.937724,8.63707006 C104.472658,8.95719745 104.113888,9.37057325 103.861801,9.87707006 L103.821795,9.87707006 L103.821795,8.9710828 C103.821795,8.68165605 103.586377,8.44675159 103.295822,8.44675159 L101.19924,8.44675159 C100.908686,8.44675159 100.673267,8.68165605 100.673267,8.9710828 L100.673267,17.8044586 C100.673267,18.0938854 100.908686,18.3287898 101.19924,18.3287898 L103.415198,18.3287898 C103.705881,18.3287898 103.941171,18.0938854 103.941171,17.8044586 L103.941171,13.2563057 C103.941171,13.0584713 103.981433,12.8273885 104.060932,12.5634395 C104.140815,12.2991083 104.270064,12.0547771 104.449706,11.8299363 C104.628834,11.6054777 104.867842,11.4138854 105.166988,11.255414 C105.466005,11.0970701 105.834648,11.017707 106.272787,11.017707 C106.405627,11.017707 106.541928,11.0244586 106.681436,11.0374522 C106.705285,11.0398726 106.729135,11.042293 106.752984,11.0454777 C106.946089,11.0699363 107.119062,10.9261146 107.128551,10.7326115 L107.235489,8.52025478 C107.24408,8.34585987 107.114703,8.19515924 106.940575,8.1766879" id="Fill-20" fill="#FFFFFF"></path>
                <path d="M127.862418,9.54751592 C127.423894,9.08420382 126.898819,8.72980892 126.28809,8.48458599 C125.676721,8.23974522 125.005727,8.11694268 124.275366,8.11694268 C123.518078,8.11694268 122.813746,8.24305732 122.162884,8.49452229 C121.512021,8.74624204 120.947582,9.10038217 120.46918,9.55745223 C119.990906,10.0143949 119.612134,10.5707006 119.333248,11.2261146 C119.05449,11.8817834 118.914983,12.6138854 118.914983,13.4216561 C118.914983,14.2559236 119.057439,14.9979618 119.343378,15.646879 C119.628675,16.2956688 120.020782,16.8420382 120.519059,17.2857325 C121.017079,17.7296815 121.598188,18.0673885 122.262898,18.2988535 C122.92684,18.5307006 123.630658,18.6467516 124.374867,18.6467516 C125.384371,18.6467516 126.271293,18.4644586 127.035249,18.1005096 C127.605074,17.8286624 128.091938,17.4701911 128.49533,17.0249682 C128.714592,16.783949 128.660738,16.4031847 128.385057,16.2298089 L126.984729,15.3482803 C126.779314,15.2188535 126.512866,15.2475159 126.338482,15.4163057 C126.163072,15.5858599 125.960223,15.7323567 125.730062,15.855414 C125.371292,16.0476433 124.933024,16.1431847 124.414745,16.1431847 C124.122652,16.1431847 123.840047,16.0970701 123.567829,16.0043312 C123.295482,15.9118471 123.049934,15.7826752 122.830672,15.6170701 C122.61141,15.451465 122.432153,15.2561783 122.292518,15.030828 C122.153139,14.8057325 122.07005,14.5541401 122.043508,14.2759236 L128.878718,14.2759236 C129.08644,14.2759236 129.256977,14.1059873 129.256977,13.8984713 L129.256977,13.5010191 C129.256977,12.653758 129.133883,11.8985987 128.888976,11.236051 C128.642787,10.5740127 128.30043,10.0110828 127.862418,9.54751592 Z M122.043508,12.2494268 C122.056458,11.9980892 122.123263,11.7563057 122.242767,11.5243312 C122.362271,11.2927389 122.521653,11.0904459 122.721041,10.9183439 C122.920428,10.7463694 123.152513,10.6103185 123.418448,10.5112102 C123.683871,10.4115924 123.976605,10.3619108 124.295112,10.3619108 C124.945975,10.3619108 125.434122,10.5477707 125.760066,10.9183439 C126.085112,11.2892994 126.248085,11.7328662 126.248085,12.2494268 L122.043508,12.2494268 L122.043508,12.2494268 Z" id="Fill-21" fill="#FFFFFF"></path>
                <path d="M116.655685,9.54751592 C116.21716,9.08420382 115.692085,8.72980892 115.081357,8.48458599 C114.469987,8.23974522 113.798994,8.11694268 113.068633,8.11694268 C112.311345,8.11694268 111.607013,8.24305732 110.95615,8.49452229 C110.30516,8.74624204 109.74072,9.10038217 109.262446,9.55745223 C108.784173,10.0143949 108.405272,10.5707006 108.126514,11.2261146 C107.847756,11.8817834 107.708121,12.6138854 107.708121,13.4216561 C107.708121,14.2559236 107.850706,14.9979618 108.136516,15.646879 C108.421941,16.2956688 108.814049,16.8420382 109.312325,17.2857325 C109.810217,17.7296815 110.391454,18.0673885 111.056165,18.2988535 C111.720106,18.5307006 112.424053,18.6467516 113.168134,18.6467516 C114.177509,18.6467516 115.064431,18.4644586 115.828387,18.1005096 C116.398212,17.8286624 116.885205,17.4701911 117.288724,17.0249682 C117.507345,16.783949 117.453363,16.4031847 117.177811,16.2298089 L115.777867,15.3482803 C115.572453,15.2188535 115.306133,15.2475159 115.131749,15.4163057 C114.956339,15.5858599 114.753489,15.7323567 114.523328,15.855414 C114.164559,16.0476433 113.726163,16.1431847 113.207883,16.1431847 C112.91579,16.1431847 112.633186,16.0970701 112.361095,16.0043312 C112.08862,15.9118471 111.843201,15.7826752 111.62381,15.6170701 C111.404676,15.451465 111.225292,15.2561783 111.085784,15.030828 C110.946405,14.8057325 110.863188,14.5541401 110.836774,14.2759236 L117.675446,14.2759236 C117.882399,14.2759236 118.050244,14.1087898 118.050372,13.8984713 L118.050372,13.5010191 C118.050372,12.653758 117.927534,11.8985987 117.681857,11.236051 C117.435668,10.5740127 117.093824,10.0110828 116.655685,9.54751592 Z M110.836774,12.2494268 C110.849725,11.9980892 110.916529,11.7563057 111.035905,11.5243312 C111.155538,11.2927389 111.31492,11.0904459 111.514179,10.9183439 C111.713567,10.7463694 111.945779,10.6103185 112.211715,10.5112102 C112.477394,10.4115924 112.769744,10.3619108 113.088507,10.3619108 C113.739241,10.3619108 114.22726,10.5477707 114.553332,10.9183439 C114.878379,11.2892994 115.041351,11.7328662 115.041351,12.2494268 L110.836774,12.2494268 L110.836774,12.2494268 Z" id="Fill-22" fill="#FFFFFF"></path>
            </g>
        </g>
    </g>
</svg>