<?xml version="1.0" encoding="UTF-8" standalone="no"?>
<svg width="200px" height="51px" viewBox="0 0 200 51" version="1.1" xmlns="http://www.w3.org/2000/svg" xmlns:xlink="http://www.w3.org/1999/xlink">
    <!-- Generator: Sketch 46.2 (44496) - http://www.bohemiancoding.com/sketch -->
    <title>Page 1</title>
    <desc>Created with Sketch.</desc>
    <defs></defs>
    <g id="Page-1" stroke="none" stroke-width="1" fill="none" fill-rule="evenodd">
        <g transform="translate(1.000000, 1.000000)">
            <path d="M112.66309,15.2752016 C112.399845,15.7149313 112.268041,16.0598174 112.268041,16.3098598 C112.268041,16.9040985 112.521898,17.4065975 113.030695,17.8101142 C113.488216,18.1819014 114.020123,18.3671053 114.629308,18.3671053 C115.350796,18.3671053 116.030757,18.0970595 116.67208,17.5521395 C117.369374,16.9651433 117.71134,16.2674388 117.71134,15.4545423 C117.71134,14.9458354 117.564009,14.5323169 117.255264,14.2129524 C116.865993,13.8080562 116.270531,13.6052632 115.468877,13.6052632 C114.266036,13.6052632 113.32969,14.1605297 112.66309,15.2752016" id="Fill-1" fill="#F7EB40"></path>
            <path d="M36.7417587,29.0566745 L36.7376839,29.0600954 C36.738363,29.0594112 36.7410795,29.0573586 36.7417587,29.0566745 L36.7417587,29.0566745 Z M23.8540777,20.1140879 L23.855436,20.1147721 C23.8038214,20.1838744 23.8540777,20.1140879 23.8540777,20.1140879 L23.8540777,20.1140879 Z M6.49154999,8.16315789 L1.75251815,19.4586426 L6.59511869,19.4586426 C4.92172023,23.7901919 0,36.5306667 0,36.5306667 L12.1752642,36.5313509 C12.1752642,36.5313509 13.43269,33.6153719 13.8965419,32.5412078 C14.2982526,33.4183278 14.7824787,34.1397965 15.3797815,34.6864571 C16.7030838,35.8906155 18.517064,36.4738797 20.9297053,36.4738797 C22.7114264,36.4738797 24.2228502,36.2439949 25.5295136,35.7920934 C26.919032,36.3315701 28.6538925,36.5905325 30.8858828,36.5905325 C32.8591211,36.5905325 34.6731013,36.3182285 36.2762089,35.7808044 C36.7152723,35.6319951 37.1543356,35.4441874 37.5974738,35.2338018 C39.0172139,36.1844712 40.8508891,36.6767393 43.2326295,36.6767393 C44.9114611,36.6767393 46.6188165,36.3329384 48.3074956,35.6545731 C49.4202648,35.2050662 50.4495,34.6156443 51.4152356,33.9461733 C51.9700922,34.7613749 52.7286904,35.4308459 53.6845785,35.8912996 C54.80346,36.4430915 56.2469699,36.7047907 58.2066255,36.7047907 C59.7003917,36.7047907 61.2335479,36.34628 62.780287,35.6545731 C64.0407689,36.3589373 65.5253667,36.7342105 67.2401927,36.7342105 C69.6158209,36.7342105 71.8070628,35.9860587 73.752796,34.5099384 C75.3399438,33.3074904 76.6252143,31.7260063 77.5732923,29.8089314 C78.4711141,28.0095356 78.9278351,26.2050084 78.9278351,24.452479 C78.9278351,22.0640035 78.0826466,19.9416743 76.4836138,18.3167447 C74.8764314,16.680526 72.7320501,15.8146951 70.283754,15.8146951 C67.8147443,15.8146951 65.5576258,16.6052661 63.64551,18.113885 C62.4960673,16.7834952 60.9737773,16.0346592 59.2817025,16.0346592 L59.0772816,16.0346592 C59.0772816,16.0346592 58.5584195,16.0928146 58.189647,16.1342076 C58.0157874,15.7418298 57.8069522,15.3696354 57.5319009,15.0443074 C56.8806066,14.2893137 55.7070544,13.4101413 53.7263456,13.4101413 C53.0556958,13.4101413 52.4186635,13.5182419 51.8193233,13.711523 C51.8672026,13.4741122 52.3860648,10.8892767 52.3860648,10.8892767 L41.6118644,10.8892767 L39.596859,16.1201819 C39.599236,16.1147084 39.5751265,16.173548 39.5411696,16.2549655 C38.9574496,16.275833 36.5274903,16.3599873 36.5274903,16.3599873 C36.5274903,16.3599873 36.3821546,16.653843 36.2412333,16.9391464 C35.0639458,16.2778856 33.7328334,15.93169 32.2516313,15.93169 C31.3127216,15.93169 30.4043732,16.0685262 29.5265861,16.3090158 C29.4909313,13.462139 28.1391052,11.1164248 25.6989588,9.69845985 C23.9250478,8.66637295 21.6753999,8.16315789 18.8226766,8.16315789 L6.49154999,8.16315789 Z" id="Fill-3" fill="#030404"></path>
            <path d="M36.7417587,29.0566745 L36.7376839,29.0600954 C36.738363,29.0594112 36.7410795,29.0573586 36.7417587,29.0566745 Z M23.8540777,20.1140879 L23.855436,20.1147721 C23.8038214,20.1838744 23.8540777,20.1140879 23.8540777,20.1140879 Z M6.49154999,8.16315789 L1.75251815,19.4586426 L6.59511869,19.4586426 C4.92172023,23.7901919 0,36.5306667 0,36.5306667 L12.1752642,36.5313509 C12.1752642,36.5313509 13.43269,33.6153719 13.8965419,32.5412078 C14.2982526,33.4183278 14.7824787,34.1397965 15.3797815,34.6864571 C16.7030838,35.8906155 18.517064,36.4738797 20.9297053,36.4738797 C22.7114264,36.4738797 24.2228502,36.2439949 25.5295136,35.7920934 C26.919032,36.3315701 28.6538925,36.5905325 30.8858828,36.5905325 C32.8591211,36.5905325 34.6731013,36.3182285 36.2762089,35.7808044 C36.7152723,35.6319951 37.1543356,35.4441874 37.5974738,35.2338018 C39.0172139,36.1844712 40.8508891,36.6767393 43.2326295,36.6767393 C44.9114611,36.6767393 46.6188165,36.3329384 48.3074956,35.6545731 C49.4202648,35.2050662 50.4495,34.6156443 51.4152356,33.9461733 C51.9700922,34.7613749 52.7286904,35.4308459 53.6845785,35.8912996 C54.80346,36.4430915 56.2469699,36.7047907 58.2066255,36.7047907 C59.7003917,36.7047907 61.2335479,36.34628 62.780287,35.6545731 C64.0407689,36.3589373 65.5253667,36.7342105 67.2401927,36.7342105 C69.6158209,36.7342105 71.8070628,35.9860587 73.752796,34.5099384 C75.3399438,33.3074904 76.6252143,31.7260063 77.5732923,29.8089314 C78.4711141,28.0095356 78.9278351,26.2050084 78.9278351,24.452479 C78.9278351,22.0640035 78.0826466,19.9416743 76.4836138,18.3167447 C74.8764314,16.680526 72.7320501,15.8146951 70.283754,15.8146951 C67.8147443,15.8146951 65.5576258,16.6052661 63.64551,18.113885 C62.4960673,16.7834952 60.9737773,16.0346592 59.2817025,16.0346592 L59.0772816,16.0346592 C59.0772816,16.0346592 58.5584195,16.0928146 58.189647,16.1342076 C58.0157874,15.7418298 57.8069522,15.3696354 57.5319009,15.0443074 C56.8806066,14.2893137 55.7070544,13.4101413 53.7263456,13.4101413 C53.0556958,13.4101413 52.4186635,13.5182419 51.8193233,13.711523 C51.8672026,13.4741122 52.3860648,10.8892767 52.3860648,10.8892767 L41.6118644,10.8892767 L39.596859,16.1201819 C39.599236,16.1147084 39.5751265,16.173548 39.5411696,16.2549655 C38.9574496,16.275833 36.5274903,16.3599873 36.5274903,16.3599873 C36.5274903,16.3599873 36.3821546,16.653843 36.2412333,16.9391464 C35.0639458,16.2778856 33.7328334,15.93169 32.2516313,15.93169 C31.3127216,15.93169 30.4043732,16.0685262 29.5265861,16.3090158 C29.4909313,13.462139 28.1391052,11.1164248 25.6989588,9.69845985 C23.9250478,8.66637295 21.6753999,8.16315789 18.8226766,8.16315789 L6.49154999,8.16315789 Z" id="Stroke-5" stroke="#121010" stroke-width="0.525"></path>
            <path d="M105.730566,32.439503 C105.717561,32.2515695 105.673412,31.9934603 105.5307,31.2482301 L105.574848,31.7113888 L105.405099,30.5687252 L105.406468,30.5947415 C104.547112,26.5105238 102.985144,22.1497117 100.890314,17.9836795 C96.7471982,9.75602276 92.2317289,5.61155675 89.2583775,3.60179711 C89.292259,3.57509616 89.5041034,3.40838641 89.5041034,3.40838641 C89.5041034,3.40838641 88.5951231,3.02875374 87.6940142,2.65288658 C87.3685472,2.48241131 87.0235727,2.34274483 86.6669622,2.22430217 C86.258674,2.0538269 85.6275898,1.79058296 85.6275898,1.79058296 L84.0094953,1.11860917 C77.4823594,-1.50082206 73.593183,1.04980288 72.3193785,2.96713617 L72.3248543,2.95926282 L70.7628866,5.29183004 C70.7628866,5.29183004 72.5972746,7.21429813 73.0671654,7.70552706 C72.7981675,8.94438248 72.6557971,10.2862762 72.6557971,11.7236771 C72.6557971,17.3298487 74.5668461,24.3415855 77.8995458,30.9599968 C82.4923606,40.0841892 88.86549,46.8162507 94.5308741,48.5285344 C97.0511042,49.2919076 99.4337552,49.0820655 101.419754,47.9209167 C103.574475,46.6625491 106.14433,43.7815855 106.14433,37.2059642 C106.14433,35.7250886 105.999222,34.1189241 105.730566,32.439503" id="Fill-7" fill="#030404"></path>
            <path d="M105.730566,32.439503 C105.717561,32.2515695 105.673412,31.9934603 105.5307,31.2482301 L105.574848,31.7113888 L105.405099,30.5687252 L105.406468,30.5947415 C104.547112,26.5105238 102.985144,22.1497117 100.890314,17.9836795 C96.7471982,9.75602276 92.2317289,5.61155675 89.2583775,3.60179711 C89.292259,3.57509616 89.5041034,3.40838641 89.5041034,3.40838641 C89.5041034,3.40838641 88.5951231,3.02875374 87.6940142,2.65288658 C87.3685472,2.48241131 87.0235727,2.34274483 86.6669622,2.22430217 C86.258674,2.0538269 85.6275898,1.79058296 85.6275898,1.79058296 L84.0094953,1.11860917 C77.4823594,-1.50082206 73.593183,1.04980288 72.3193785,2.96713617 L72.3248543,2.95926282 L70.7628866,5.29183004 C70.7628866,5.29183004 72.5972746,7.21429813 73.0671654,7.70552706 C72.7981675,8.94438248 72.6557971,10.2862762 72.6557971,11.7236771 C72.6557971,17.3298487 74.5668461,24.3415855 77.8995458,30.9599968 C82.4923606,40.0841892 88.86549,46.8162507 94.5308741,48.5285344 C97.0511042,49.2919076 99.4337552,49.0820655 101.419754,47.9209167 C103.574475,46.6625491 106.14433,43.7815855 106.14433,37.2059642 C106.14433,35.7250886 105.999222,34.1189241 105.730566,32.439503 Z" id="Stroke-9" stroke="#121010" stroke-width="0.525"></path>
            <path d="M188.474227,28.5710526 L188.493959,28.5751342 L188.474227,28.5710526 Z" id="Fill-11" fill="#030404"></path>
            <path d="M188.474227,28.5710526 L188.493959,28.5751342 L188.474227,28.5710526 Z" id="Stroke-13" stroke="#121010" stroke-width="0.525"></path>
            <g id="Group-18" transform="translate(161.257732, 31.292105)">
                <path d="M0.37786701,0.118467829 C0.334660825,0.151800724 0.264238144,0.208262566 0.264238144,0.208262566 C0.302001031,0.180371776 0.342825773,0.133093487 0.381949485,0.104522434 C0.379227835,0.109284276 0.379227835,0.113025724 0.37786701,0.118467829" id="Fill-15" fill="#030404"></path>
                <path d="M0.37786701,0.118467829 C0.334660825,0.151800724 0.264238144,0.208262566 0.264238144,0.208262566 C0.302001031,0.180371776 0.342825773,0.133093487 0.381949485,0.104522434 C0.379227835,0.109284276 0.379227835,0.113025724 0.37786701,0.118467829" id="Stroke-17" stroke="#121010" stroke-width="0.525"></path>
            </g>
            <path d="M177.653105,33.450688 L177.652764,33.450688 L177.653105,33.450688 Z M112.55347,8.26392136 L97.795299,8.26392136 L95.2013621,14.4326946 L94.1293606,17.0440054 C94.1293606,17.0440054 94.1545842,16.996527 94.1634465,16.9811563 C94.1460627,17.0197538 94.1259521,17.0672322 94.1041371,17.1188094 L89.7895441,17.1188094 L88.2737442,21.3361873 L85.7319588,28.6379518 L89.2656438,28.5686128 C88.3518009,30.8649951 86.0496393,36.6474515 86.0496393,36.6474515 L98.7943567,36.6481346 L101.076408,31.0822342 L101.068227,31.0863331 C101.082202,31.0555917 101.098904,31.0309986 101.112879,30.9995741 C101.112879,30.9995741 101.968095,29.0123136 102.139888,28.6133586 C103.052708,28.6225811 103.794076,28.6365855 104.284572,28.656055 L104.308432,28.6567382 C104.306728,28.6615202 104.160159,29.0857514 104.160159,29.0857514 C104.160159,29.0857514 104.168339,29.7166332 104.168339,29.7173163 C104.168339,31.6099615 104.999354,33.393304 106.507314,34.7042537 C108.014933,36.0124709 109.987825,36.6754603 112.372815,36.6754603 C113.807491,36.6754603 115.266026,36.3933226 116.707178,35.8375865 C117.030653,35.7115468 117.365377,35.55135 117.703168,35.3853464 C119.109211,36.2720649 120.907583,36.7342105 123.220652,36.7342105 C123.950772,36.7342105 124.6918,36.6495009 125.435895,36.5186792 C125.716081,36.5234612 126.237936,36.5309757 126.237936,36.5309757 C126.790468,36.5388319 131.649754,36.6109034 132.171609,36.6054382 C132.969219,36.5941664 133.541521,36.4715424 134.095076,36.1938451 C134.637042,35.919222 135.067547,35.5219748 135.422381,34.9737533 C135.582585,34.7182581 135.726427,34.4381699 135.950713,33.941184 C136.353949,34.4559316 136.844445,34.9197851 137.432427,35.3091761 C138.751551,36.1791576 140.396195,36.6180764 142.325116,36.6180764 C143.984077,36.6180764 145.712914,36.2153641 147.471064,35.4635662 C148.97323,36.2645503 150.961801,36.6481346 153.693445,36.6481346 C154.922924,36.6481346 155.970042,36.5487374 156.972168,36.3574577 C156.970804,36.3608734 156.94149,36.4326033 156.94149,36.4326033 L162.365579,36.5606924 L170.956248,36.5606924 C171.342782,36.5606924 171.738179,36.5094568 172.138006,36.4339696 C172.804386,36.4507065 177.125114,36.5606924 177.125114,36.5606924 L185.718169,36.5606924 C186.987187,36.5606924 188.312788,36.157297 189.771323,35.3279625 C190.650739,34.8268777 191.539018,34.195996 192.41264,33.450688 C193.290351,32.7094788 193.827204,32.1571584 194.198741,31.612011 L198,26.019468 C198,26.019468 191.080904,25.8001794 189.835064,25.7605572 C189.769278,25.0774151 189.664975,24.3669473 189.475117,23.5799676 C189.029273,21.74334 188.929742,21.032189 188.908268,20.8327115 C188.92872,20.5697018 189.005754,19.5975906 189.005754,19.5975906 L189.222199,14.5515614 C189.222199,14.5515614 185.391285,14.7148323 185.295504,14.7189312 L178.473211,14.7189312 L177.501423,16.9473408 C176.976159,18.1619674 176.523157,19.1333955 176.150939,19.8418139 C175.689075,20.7131617 175.109615,21.6371114 174.479367,22.5784812 C174.233607,21.4823797 174.163391,20.9918837 174.145325,20.8327115 C174.16714,20.565603 174.244856,19.59964 174.244856,19.59964 L174.467437,14.5474625 C174.467437,14.5474625 170.63141,14.7141492 170.533242,14.7189312 L163.715722,14.7189312 L162.741888,16.9418756 C162.326381,17.9013487 161.942233,18.7337574 161.608191,19.4049445 C161.189275,18.7259013 160.644923,18.1141475 159.972068,17.5990583 C158.589203,16.5497521 156.94149,16.0206585 155.066084,16.0206585 C152.464649,16.0206585 150.072841,16.9657856 148.049161,18.743663 C147.685806,18.1332755 147.255982,17.6690804 146.855473,17.3380981 C145.675079,16.3560813 144.086676,15.8751492 142.008458,15.8751492 C141.42593,15.8751492 140.859082,15.9226276 140.302459,15.9926497 C139.7155,15.9984564 139.080139,16.0046046 139.080139,16.0046046 L137.533662,16.0213416 C137.533662,16.0213416 131.836204,16.0206585 131.355252,16.0206585 C131.4299,15.7842913 131.466713,15.6391236 131.495345,15.5127423 L131.510343,15.4454528 L132.419754,10.985218 L121.593051,10.985218 C121.593051,10.985218 120.913037,12.7408932 120.904515,12.7630953 C120.667959,12.1872065 120.343462,11.6540141 119.91432,11.1891359 C119.398941,10.6221279 118.562132,9.97758335 117.328564,9.63669543 C117.583526,8.9101738 117.845647,8.16315789 117.845647,8.16315789 C117.845647,8.16315789 112.599145,8.26323821 112.55347,8.26392136 L112.55347,8.26392136 Z" id="Fill-19" fill="#121010"></path>
            <path d="M177.653105,33.450688 L177.652764,33.450688 L177.653105,33.450688 Z M112.55347,8.26392136 L97.795299,8.26392136 L95.2013621,14.4326946 L94.1293606,17.0440054 C94.1293606,17.0440054 94.1545842,16.996527 94.1634465,16.9811563 C94.1460627,17.0197538 94.1259521,17.0672322 94.1041371,17.1188094 L89.7895441,17.1188094 L88.2737442,21.3361873 L85.7319588,28.6379518 L89.2656438,28.5686128 C88.3518009,30.8649951 86.0496393,36.6474515 86.0496393,36.6474515 L98.7943567,36.6481346 L101.076408,31.0822342 L101.068227,31.0863331 C101.082202,31.0555917 101.098904,31.0309986 101.112879,30.9995741 C101.112879,30.9995741 101.968095,29.0123136 102.139888,28.6133586 C103.052708,28.6225811 103.794076,28.6365855 104.284572,28.656055 L104.308432,28.6567382 C104.306728,28.6615202 104.160159,29.0857514 104.160159,29.0857514 C104.160159,29.0857514 104.168339,29.7166332 104.168339,29.7173163 C104.168339,31.6099615 104.999354,33.393304 106.507314,34.7042537 C108.014933,36.0124709 109.987825,36.6754603 112.372815,36.6754603 C113.807491,36.6754603 115.266026,36.3933226 116.707178,35.8375865 C117.030653,35.7115468 117.365377,35.55135 117.703168,35.3853464 C119.109211,36.2720649 120.907583,36.7342105 123.220652,36.7342105 C123.950772,36.7342105 124.6918,36.6495009 125.435895,36.5186792 C125.716081,36.5234612 126.237936,36.5309757 126.237936,36.5309757 C126.790468,36.5388319 131.649754,36.6109034 132.171609,36.6054382 C132.969219,36.5941664 133.541521,36.4715424 134.095076,36.1938451 C134.637042,35.919222 135.067547,35.5219748 135.422381,34.9737533 C135.582585,34.7182581 135.726427,34.4381699 135.950713,33.941184 C136.353949,34.4559316 136.844445,34.9197851 137.432427,35.3091761 C138.751551,36.1791576 140.396195,36.6180764 142.325116,36.6180764 C143.984077,36.6180764 145.712914,36.2153641 147.471064,35.4635662 C148.97323,36.2645503 150.961801,36.6481346 153.693445,36.6481346 C154.922924,36.6481346 155.970042,36.5487374 156.972168,36.3574577 C156.970804,36.3608734 156.94149,36.4326033 156.94149,36.4326033 L162.365579,36.5606924 L170.956248,36.5606924 C171.342782,36.5606924 171.738179,36.5094568 172.138006,36.4339696 C172.804386,36.4507065 177.125114,36.5606924 177.125114,36.5606924 L185.718169,36.5606924 C186.987187,36.5606924 188.312788,36.157297 189.771323,35.3279625 C190.650739,34.8268777 191.539018,34.195996 192.41264,33.450688 C193.290351,32.7094788 193.827204,32.1571584 194.198741,31.612011 L198,26.019468 C198,26.019468 191.080904,25.8001794 189.835064,25.7605572 C189.769278,25.0774151 189.664975,24.3669473 189.475117,23.5799676 C189.029273,21.74334 188.929742,21.032189 188.908268,20.8327115 C188.92872,20.5697018 189.005754,19.5975906 189.005754,19.5975906 L189.222199,14.5515614 C189.222199,14.5515614 185.391285,14.7148323 185.295504,14.7189312 L178.473211,14.7189312 L177.501423,16.9473408 C176.976159,18.1619674 176.523157,19.1333955 176.150939,19.8418139 C175.689075,20.7131617 175.109615,21.6371114 174.479367,22.5784812 C174.233607,21.4823797 174.163391,20.9918837 174.145325,20.8327115 C174.16714,20.565603 174.244856,19.59964 174.244856,19.59964 L174.467437,14.5474625 C174.467437,14.5474625 170.63141,14.7141492 170.533242,14.7189312 L163.715722,14.7189312 L162.741888,16.9418756 C162.326381,17.9013487 161.942233,18.7337574 161.608191,19.4049445 C161.189275,18.7259013 160.644923,18.1141475 159.972068,17.5990583 C158.589203,16.5497521 156.94149,16.0206585 155.066084,16.0206585 C152.464649,16.0206585 150.072841,16.9657856 148.049161,18.743663 C147.685806,18.1332755 147.255982,17.6690804 146.855473,17.3380981 C145.675079,16.3560813 144.086676,15.8751492 142.008458,15.8751492 C141.42593,15.8751492 140.859082,15.9226276 140.302459,15.9926497 C139.7155,15.9984564 139.080139,16.0046046 139.080139,16.0046046 L137.533662,16.0213416 C137.533662,16.0213416 131.836204,16.0206585 131.355252,16.0206585 C131.4299,15.7842913 131.466713,15.6391236 131.495345,15.5127423 L131.510343,15.4454528 L132.419754,10.985218 L121.593051,10.985218 C121.593051,10.985218 120.913037,12.7408932 120.904515,12.7630953 C120.667959,12.1872065 120.343462,11.6540141 119.91432,11.1891359 C119.398941,10.6221279 118.562132,9.97758335 117.328564,9.63669543 C117.583526,8.9101738 117.845647,8.16315789 117.845647,8.16315789 C117.845647,8.16315789 112.599145,8.26323821 112.55347,8.26392136 Z" id="Stroke-21" stroke="#121010" stroke-width="0.525"></path>
            <path d="M76.3577345,12.063636 C76.3577345,16.6781625 77.9043852,22.6723871 80.7296362,28.5710526 L80.7406932,28.5524811 L82.2766219,25.9929823 L82.2866738,25.9764367 C79.5957831,19.5827546 79.0817965,13.4868929 79.8547868,9.99881603 L79.9154332,9.72058028 C79.9154332,9.72058028 81.3592195,10.9577839 81.8795723,11.4021507 C81.580361,10.0876219 81.4560527,8.99561406 81.4560527,8.11903637 C81.4560527,6.16699645 82.0142676,5.21275586 82.3298969,4.82815571 C80.899178,4.27945049 79.7301433,4.08157895 78.7892865,4.08157895 C76.7691919,4.08157895 75.7951638,4.99259844 75.5257732,5.3005487 C75.716089,5.50078389 77.2004179,7.06991199 77.2004179,7.06991199 L77.158535,7.17593872 C76.6160681,8.50431185 76.3577345,10.1669731 76.3577345,12.063636" id="Fill-23" fill="#F7EB40"></path>
            <path d="M91.5670781,11.5644737 L91.6742303,11.3889981 L91.8556701,11.0937267 C89.6136905,8.62964455 87.6339428,7.27173349 86.3258646,6.55599558 C85.806536,6.27051031 85.1786859,6.12236842 84.5977363,6.12236842 C84.1995957,6.12236842 83.8226803,6.1922212 83.517656,6.33530129 C83.3444324,6.41561512 83.1462179,6.55329596 83.0103093,6.75846741 C85.2872074,6.06365159 88.4055754,7.91120701 91.5670781,11.5644737" id="Fill-25" fill="#F7EB40"></path>
            <path d="M101.530014,32.1583 L101.527652,32.1583 C101.128433,30.1238241 100.528424,27.9953918 99.7606959,25.85 L99.1347021,25.85 L99.127278,25.85 C99.9152539,28.0449139 100.487929,30.1794516 100.803794,32.1596568 L100.804469,32.1596568 C100.965776,33.2501603 101.050142,34.2789308 101.050142,35.2215465 C101.050142,38.2067787 100.267903,40.3650598 98.8033135,41.2269477 C97.8739406,41.7737258 96.6664982,41.844617 95.3152966,41.433855 C91.2994876,40.2147976 86.5648826,35.1567607 83.2536963,28.5496322 C82.9914876,28.02558 82.7488517,27.5028845 82.5160023,26.9808674 L80.9690722,29.5519457 C80.9953943,29.6045205 81.0200291,29.6574345 81.0463512,29.7103486 C85.0834203,37.7702381 90.6697818,43.8835025 95.2791881,45.2847062 C96.8109323,45.7504174 98.1462732,45.6605314 99.2396531,45.0170834 C101.083888,43.9347205 102.061856,41.1719985 102.061856,37.3954305 C102.061856,35.811402 101.882663,34.0462448 101.530014,32.1583" id="Fill-27" fill="#E82429"></path>
            <path d="M97.7497337,20.0362843 C95.8692159,16.3556512 93.9375136,13.6093819 92.1518576,11.5644737 L91.8556701,12.0462812 C93.7297046,14.3026737 95.6071514,17.1810787 97.3204666,20.5352392 C98.1134848,22.0872445 98.8020867,23.6409309 99.3849073,25.1697368 L100.020619,25.1697368 C99.3705756,23.4516374 98.6144102,21.7278221 97.7497337,20.0362843" id="Fill-29" fill="#E82429"></path>
            <path d="M54.9907576,29.1707982 C54.6181212,30.1769294 54.4329897,30.9145705 54.4329897,31.3808954 C54.4329897,32.4082232 54.8300391,33.121135 55.6305802,33.5178644 C56.2385303,33.8298074 57.2133527,33.9827761 58.5543693,33.9827761 C59.8397786,33.9827761 61.209277,33.5507191 62.6601518,32.6869583 C62.9849796,32.492303 63.2813256,32.2987075 63.5569884,32.1033456 C63.6468416,32.2538414 63.7312697,32.4082232 63.8370591,32.5399953 C64.6172561,33.522457 65.8623162,34.0131579 67.5739349,34.0131579 C69.135007,34.0131579 70.5641814,33.505853 71.8577284,32.4891235 C72.9841145,31.6052259 73.8958701,30.4369408 74.5906218,28.9906272 C75.115161,27.9018294 75.4274433,26.8550714 75.5257732,25.8507066 L75.5257732,25.85 L71.2952135,25.85 C71.2429969,26.726832 70.9625871,27.6135558 70.4546622,28.5105246 C69.8077192,29.6456017 69.0580384,30.2119038 68.2025682,30.2119038 C67.7258376,30.2119038 67.3582872,30.0271402 67.0972043,29.6544336 C66.8768097,29.3364848 66.7662733,28.9280973 66.7662733,28.4310374 C66.7662733,27.6831513 67.0307469,26.8229232 67.5586768,25.85 L63.3759257,25.85 C63.031432,26.8709688 62.858846,27.9668322 62.858846,29.1361771 C62.858846,29.5625817 62.8978389,29.9518923 62.9497164,30.3238924 L59.0856899,30.3072884 C59.2304722,29.5032313 59.5430935,28.5250089 60.0259273,27.3666156 C60.2429313,26.8649631 60.4602743,26.3590713 60.6772782,25.85 L56.2364959,25.85 C56.1958077,25.9616353 56.1547804,26.0732707 56.1107014,26.1905585 C55.7356915,27.1698406 55.363055,28.1632539 54.9907576,29.1707982" id="Fill-31" fill="#E82429"></path>
            <polygon id="Fill-33" fill="#E82429" points="9.68938162 33.3328947 12.9278351 25.85 8.34433072 25.85 5.44329897 33.3328947"></polygon>
            <path d="M16.9459812,30.0343139 C17.2225491,31.1741855 17.5918685,31.948998 18.0600104,32.358099 C18.6546315,32.8781206 19.6725365,33.1407412 21.1032698,33.1407412 C22.7805533,33.1407412 24.1192097,32.9074819 25.1135052,32.4429206 C25.3344223,32.340156 25.5745642,32.2050939 25.82786,32.0406706 C26.0056055,32.2002004 26.1971794,32.3460283 26.4140492,32.4677146 C27.3415637,32.9896936 28.8704448,33.250683 30.9922607,33.250683 C32.5693726,33.250683 33.9690763,33.0526573 35.1927209,32.6601943 C36.1202354,32.359404 37.0028919,31.9196367 37.8450751,31.3474172 C38.0764478,31.1767954 38.307146,31.0009537 38.5375068,30.8277219 C38.6447613,31.489004 38.936844,32.0197914 39.422187,32.4054034 C40.1989383,33.0252534 41.4782337,33.3328947 43.2570379,33.3328947 C44.4597712,33.3328947 45.6911732,33.0927844 46.9391018,32.6106063 C47.9509358,32.2191221 48.8818231,31.71215 49.7354737,31.0906688 C50.4437575,30.5765196 50.9054911,30.1344686 51.1250591,29.7667997 L51.1226981,29.7667997 C51.2211833,29.666645 51.3304614,29.5769298 51.4188282,29.4673142 C51.8647097,28.9117329 52.3379107,27.9131219 52.8387686,26.4705025 C52.9149934,26.2493139 52.9932419,26.0460683 53.0721649,25.85 L50.501432,25.85 C50.1870889,26.6042596 49.8555447,27.3493846 49.5024146,28.0821126 C49.2430478,28.6197509 48.9543379,29.181857 48.6433675,29.7667997 L42.6290263,29.7667997 L44.0914637,25.85 L39.9685774,25.85 C39.7088733,26.5305301 39.4505184,27.2091027 39.1891279,27.8928952 C38.819134,28.8732369 38.5982169,29.5521358 38.5226666,29.9609106 L28.6424449,29.9609106 C29.3928885,29.6604465 30.1463675,29.3596561 30.9035566,29.0595182 C32.3467692,28.4318385 33.4887925,27.7460886 34.3309756,26.9993324 C34.7515613,26.6287274 35.0938985,26.2450728 35.3643954,25.85 L31.2421837,25.85 C31.2135151,25.8715316 31.1875447,25.892737 31.1582015,25.9136162 C30.4377757,26.4362476 29.751415,26.7706404 29.0991193,26.9171208 C29.13993,26.538686 29.2255986,26.1850452 29.3460068,25.85 L25.2639312,25.85 C24.8699905,26.8241432 24.6696473,27.8570091 24.6696473,28.9499026 C24.6696473,29.3116993 24.7013515,29.6451133 24.7566651,29.9609106 L22.0931807,29.9609106 C21.7714175,29.9609106 21.4924886,29.6888291 21.2567313,29.1430348 C21.1130508,28.8001599 20.9390154,28.1806361 20.7245066,27.2834847 C20.5862226,26.6897337 20.4705363,26.2137541 20.3760984,25.85 L15.6494845,25.85 C15.9381945,26.5266152 16.1813719,27.1885498 16.3753068,27.8315627 C16.5436085,28.387144 16.7361942,29.1192195 16.9459812,30.0343139" id="Fill-35" fill="#E82429"></path>
            <path d="M96.7170761,33.3328947 C97.0892478,32.44132 97.5440859,31.3874608 98.0791691,30.1729665 C98.4938846,29.2470878 98.9134424,28.3215388 99.336805,27.3963198 C99.6297691,26.747512 99.8573611,26.234271 100.020619,25.85 L94.9886915,25.85 L91.8556701,33.3328947 L96.7170761,33.3328947 Z" id="Fill-37" fill="#E82429"></path>
            <path d="M181.788786,27.8151272 C181.788786,28.4489316 181.681832,28.9676504 181.473846,29.3676143 C181.264815,29.7695798 181.00283,29.9690614 180.687193,29.9690614 C180.400124,30.0190985 180.164616,30.0524567 179.982062,30.0634648 C179.79916,30.0764745 179.545187,30.0831461 179.223628,30.0831461 L178.734147,30.0831461 L178.292047,30.0831461 C178.190667,30.2549405 177.955158,30.8063503 177.588309,31.7327055 C177.325627,32.3951978 177.097086,32.9262592 176.907216,33.3328947 L185.658994,33.3328947 C186.275636,33.3328947 187.032328,33.0873789 187.930464,32.601351 C188.618873,32.2284072 189.325398,31.7483838 190.045161,31.1606136 C190.646822,30.6732514 191.03109,30.314318 191.195876,30.0831461 C190.258024,30.057794 189.429565,30.0334425 188.707363,30.0080904 C187.986903,29.9814039 187.017347,29.9690614 185.802529,29.9690614 C185.927948,29.5193938 186.017831,29.0907419 186.072179,28.6831056 C186.127224,28.2744686 186.153701,27.875839 186.153701,27.4848817 C186.153701,26.9975195 186.092037,26.451447 185.974631,25.85 L181.348428,25.85 C181.382918,26.0044481 181.419498,26.1525582 181.461304,26.2879922 C181.679045,27.0058591 181.788786,27.5162384 181.788786,27.8151272" id="Fill-39" fill="#E82429"></path>
            <path d="M108.185567,30.1470045 C108.185567,30.9713691 108.541415,31.67601 109.251739,32.2635369 C110.074273,32.939144 111.228978,33.2774369 112.711393,33.2774369 C113.697268,33.2774369 114.707506,33.0898589 115.736274,32.7140504 C116.577339,32.4025078 117.428011,31.9686317 118.283831,31.4111172 C118.479428,31.281933 118.672965,31.1390475 118.865473,30.9994242 C118.9969,31.5801005 119.28103,32.0521447 119.730902,32.4051176 C120.520836,33.0249406 121.821724,33.3328947 123.632192,33.3328947 C124.858615,33.3328947 126.107344,33.0924687 127.376662,32.6103116 C128.007374,32.3692331 128.595193,32.0736754 129.166197,31.7481052 L128.561564,33.1704359 C128.698138,33.1704359 129.273947,33.1792439 130.279381,33.198491 C131.287903,33.2134973 131.940921,33.221979 132.242208,33.221979 C132.353046,33.2134973 132.478296,33.2105612 132.619675,33.2105612 C132.763112,33.2105612 132.838948,33.2079515 132.846841,33.2040368 C132.853018,33.1994697 133.234945,32.3604251 133.990908,30.6816834 C134.848101,28.7833939 135.685391,27.2873369 136.501062,26.1895978 C136.588566,26.0718314 136.675383,25.9596108 136.762887,25.85 L131.666743,25.85 L130.005203,29.7666289 L122.995989,29.7666289 L124.481492,25.85 L120.28715,25.85 C120.022924,26.5305004 119.760069,27.2090435 119.4955,27.8928061 C119.10465,28.8988767 118.88366,29.5875327 118.809196,29.9897652 L112.429322,29.9897652 C112.67948,29.4022382 112.928608,28.8173211 113.175334,28.2291417 C113.588145,27.2524311 113.923061,26.4603625 114.180768,25.85 L109.781222,25.85 C109.411304,26.7859327 109.045505,27.7443748 108.686225,28.7406587 C108.513963,29.2136816 108.345132,29.6831159 108.185567,30.1470045" id="Fill-41" fill="#E82429"></path>
            <path d="M138.48015,29.0247713 C138.30176,29.6095889 138.191588,30.1069972 138.146223,30.5117187 C138.146223,30.5456929 138.141107,30.6004474 138.123711,30.6740032 L138.123711,30.8234236 C138.123711,31.5837194 138.471623,32.187998 139.172903,32.6342801 C139.871795,33.0808921 140.821047,33.3038683 142.021682,33.3038683 C143.362164,33.3038683 144.787577,32.9476342 146.306449,32.2368153 C146.799664,32.0055929 147.237964,31.7575485 147.647613,31.505216 C147.932082,31.9320372 148.30114,32.2813445 148.768092,32.5409336 C149.706088,33.0686878 151.248495,33.3328947 153.396677,33.3328947 C154.991611,33.3328947 156.104928,33.1838042 157.340013,32.7876587 C158.278009,32.4805717 159.040685,31.9867917 159.866804,31.3201722 C160.168668,31.0774053 160.405725,30.8613559 160.643806,30.6482751 C160.800366,30.5443735 160.976027,30.3975919 161.178634,30.1881395 C161.261178,30.1225 161.336559,30.0588397 161.42763,29.9879227 L161.359753,29.9879227 C161.5436,29.7850672 161.738362,29.5548344 161.953931,29.2734755 C162.899431,28.0520544 163.798202,26.9160635 164.659794,25.85 L162.156879,25.85 C162.00066,26.0683583 161.847511,26.2853972 161.682764,26.5057346 C160.844708,27.6262227 159.880789,28.7922296 158.810791,29.9925406 L151.018601,30.0067239 C151.776502,29.7026056 152.54293,29.3984872 153.308335,29.0950286 C154.766492,28.4604042 155.92108,27.7670671 156.773804,27.0120488 C157.199143,26.6373433 157.545349,26.249444 157.818902,25.85 L153.651471,25.85 C153.622137,25.8717699 153.596214,25.8932099 153.566539,25.91432 C152.835926,26.4427339 152.144537,26.7808265 151.483506,26.9289275 C151.524436,26.5463057 151.611073,26.1887522 151.73216,25.85 L147.60293,25.85 C147.204538,26.8349213 147.002613,27.8792149 147.002613,28.9842002 C147.002613,29.3404343 147.034675,29.6669822 147.084815,29.9783572 L143.647656,29.9783572 C143.262225,29.9783572 143.027555,29.8467485 142.942283,29.5832012 C142.893166,29.444006 142.845072,29.304481 142.803118,29.1639665 C143.350567,27.7716849 143.770448,26.6719772 144.069584,25.85 L139.655544,25.85 C139.398363,26.4753887 139.236686,26.8787908 139.172903,27.0516303 C138.890481,27.780261 138.659904,28.4366552 138.48015,29.0247713" id="Fill-43" fill="#E82429"></path>
            <path d="M167.311402,27.8151272 C167.311402,28.4489316 167.209267,28.9676504 167.008681,29.3676143 C166.80776,29.7695798 166.557279,29.9690614 166.253218,29.9690614 C165.978626,30.0190985 165.749576,30.0524567 165.57444,30.0634648 C165.397629,30.0764745 165.155854,30.0831461 164.842418,30.0831461 L164.373937,30.0831461 L163.953007,30.0831461 C163.852212,30.2549405 163.623162,30.8063503 163.273224,31.7327055 C163.019729,32.3951978 162.803069,32.9262592 162.618557,33.3328947 L171.029446,33.3328947 C171.624172,33.3328947 172.354185,33.0873789 173.214127,32.601351 C173.874823,32.2284072 174.55494,31.7483838 175.246109,31.1606136 C175.825766,30.6732514 176.194456,30.314318 176.352179,30.0831461 L176.35017,30.0831461 C176.541714,29.8659847 176.744645,29.6198018 176.974029,29.3122399 C177.90061,28.0769885 178.782654,26.9284682 179.628866,25.85 L177.171267,25.85 C177.017562,26.0708308 176.866872,26.2906608 176.705465,26.5134931 C175.893744,27.635994 174.951759,28.8028613 173.916011,30.0054217 C173.228527,29.9814039 172.312662,29.9690614 171.170091,29.9690614 C171.288634,29.5193938 171.37637,29.0907419 171.429279,28.6831056 C171.482858,28.2744686 171.507638,27.875839 171.507638,27.4848817 C171.507638,26.9975195 171.448701,26.451447 171.334511,25.85 L166.887459,25.85 C166.920946,26.0044481 166.956107,26.1525582 166.996291,26.2879922 C167.205584,27.0058591 167.311402,27.5162384 167.311402,27.8151272" id="Fill-45" fill="#E82429"></path>
            <path d="M59.695982,20.3239796 C58.9299799,20.4185561 58.3465233,20.483212 57.952845,20.5179474 C56.789376,20.6383175 56.1170577,20.6995344 55.9355455,20.6995344 C55.651739,20.6644551 55.459894,20.5726298 55.3589774,20.4219952 C55.2621938,20.2754876 55.2122522,20.0732658 55.2122522,19.8167055 C55.2122522,19.705965 55.2249959,19.5360711 55.2522055,19.3077118 C55.2770041,19.077289 55.2880257,18.9060195 55.2880257,18.7966546 C55.2880257,18.448613 55.2156964,18.1886136 55.0700045,18.0173441 C54.8802261,17.7975826 54.5451002,17.6868421 54.060838,17.6868421 C53.2328394,17.6868421 52.5835975,18.0125293 52.1200009,18.6628719 C51.5503213,19.452156 51.2651371,20.6720212 51.2651371,22.3262506 C51.2651371,22.7279429 51.2864915,23.1041855 51.3271337,23.4515393 C51.3660537,23.799237 51.4056627,24.0117762 51.4390719,24.0874375 C51.3075014,24.4502674 51.1707645,24.8110339 51.0309278,25.1697368 L53.6657821,25.1697368 C53.9798981,24.4791562 54.3112353,23.9753213 54.6608271,23.666486 C54.892281,23.6413802 55.2522055,23.5990787 55.7399119,23.5433645 C56.2269294,23.4883382 56.6426508,23.4594493 56.9850097,23.4594493 C56.9044141,23.8577025 56.7249685,24.4282569 56.4528724,25.1697368 L60.9999765,25.1697368 C61.1043374,24.9344992 61.2086983,24.7002934 61.3123704,24.4629923 C61.7170702,23.5433645 61.9175258,22.7998211 61.9175258,22.2323619 C61.9175258,22.0005634 61.7504795,21.6652467 61.4146647,21.2260677 C60.949346,20.6249049 60.3755333,20.3239796 59.695982,20.3239796" id="Fill-47" fill="#F7EB40"></path>
            <path d="M20.6539346,20.7336509 C20.3581747,21.1492716 19.8411002,21.4676934 19.1017006,21.6816004 C18.5879946,21.8310566 17.6592817,21.9902675 16.310509,22.1651557 L14.7316633,22.1651557 L14.9361351,21.2663282 C15.2975819,20.4681833 15.6640816,19.4871375 16.0329393,18.3235391 C16.2522328,17.6316509 16.4819688,17.1989596 16.723158,17.0233747 C16.9616523,16.8509252 17.5147704,16.7638295 18.3811649,16.7638295 C19.323352,16.7638295 20.0307503,16.9327951 20.5016755,17.2714232 C20.9304936,17.582529 21.1457448,18.0528457 21.1457448,18.6761024 C21.1457448,19.5878201 20.9813589,20.2737857 20.6539346,20.7336509 M25.8556701,17.5473423 C25.8556701,15.954188 25.197116,14.7668996 23.8827025,13.9830384 C22.7057265,13.2782601 21.0409825,12.925 18.8935233,12.925 L11.3374989,12.925 L10.2565269,12.925 L9.08931967,12.925 L7.48453608,16.8509252 L12.1190056,16.8509252 L8.73258881,25.85 L20.1153013,25.85 C20.106543,25.8186456 20.0974479,25.7852008 20.0890265,25.758027 C20.0294029,25.558752 20.2180425,25.3859542 20.6589874,25.2361496 C21.46879,24.9665013 22.0360561,24.7400526 22.3641542,24.5557581 C23.1753042,24.1039057 23.8827025,23.4520815 24.4887071,22.5992406 C24.8612702,22.0592473 25.1886946,21.2283544 25.476033,20.1055168 C25.7283384,19.1046132 25.8556701,18.2507271 25.8556701,17.5473423" id="Fill-49" fill="#F7EB40"></path>
            <path d="M74.121031,21.7301796 C73.1816443,20.847902 71.9639466,20.4078947 70.4641205,20.4078947 C68.2265272,20.4078947 66.3293618,21.2478204 64.7774825,22.9299349 C64.1393104,23.6221139 63.644805,24.3715164 63.2783505,25.1697368 L67.6733753,25.1697368 C68.287603,24.3323975 68.9545779,23.9130812 69.6749941,23.9130812 C70.1604769,23.9130812 70.5342188,24.052099 70.7885855,24.3278713 C70.9967982,24.5522395 71.1154795,24.8354477 71.1539989,25.1697368 L75.5216089,25.1697368 C75.522303,25.1315878 75.5257732,25.0924688 75.5257732,25.0546431 C75.5257732,23.719103 75.0552123,22.6118107 74.121031,21.7301796" id="Fill-51" fill="#F7EB40"></path>
            <path d="M34.9062254,21.1996052 C34.1814905,20.672901 33.2826669,20.4078947 32.2121774,20.4078947 C30.0781204,20.4078947 28.2181752,21.2856247 26.6361488,23.0347985 C26.0266655,23.7093901 25.5431628,24.4220287 25.1752577,25.1697368 L29.3568466,25.1697368 C29.3786509,25.1277196 29.3969942,25.084379 29.4198369,25.0430235 C29.8216598,24.3336933 30.4283744,23.7474372 31.2361734,23.2835935 C31.3465796,23.2415762 31.4327586,23.2164321 31.4877886,23.2022058 C31.543857,23.1893028 31.6366119,23.1826859 31.7629387,23.1826859 C31.9705991,23.1826859 32.1339587,23.2177554 32.2533634,23.2835935 C32.348195,23.3577026 32.4170691,23.4367744 32.454794,23.5188238 C32.4921729,23.6015348 32.5122468,23.6875543 32.5122468,23.7798599 C32.5122468,23.8619093 32.5070552,23.9207996 32.4997871,23.9542149 C32.389381,24.3581758 32.1194224,24.7631292 31.6961413,25.1697368 L35.6198851,25.1697368 C35.9133785,24.6030005 36.0618557,24.0137668 36.0618557,23.4017049 C36.0618557,22.4958532 35.6752612,21.761048 34.9062254,21.1996052" id="Fill-53" fill="#F7EB40"></path>
            <path d="M47.2260399,17.9060061 C47.7036667,16.6168062 47.9664987,15.8622038 48.0100753,15.6460526 L44.2388134,15.6460526 C43.9996569,16.335144 43.6277118,17.316057 43.1229783,18.5880909 C42.691673,19.662541 42.3530109,20.4917628 42.1063057,21.0761067 C41.3473182,21.0761067 40.7087668,21.0918714 40.1858477,21.1205981 C39.66087,21.1500255 39.2305941,21.1664908 38.8957063,21.1664908 C38.6997832,21.6208637 38.4479311,22.2045069 38.1384344,22.9146179 C37.9174634,23.4323998 37.6779637,24.0058836 37.4226804,24.6375215 L40.6133787,24.6375215 C40.4675515,25.0403965 40.320695,25.446074 40.1748678,25.85 L44.3654257,25.85 L44.7943291,24.6375215 C44.9995165,24.6375215 45.7626215,24.6147503 47.0863889,24.5643033 C47.3488778,24.5527426 47.7990549,24.5471374 48.4355475,24.5471374 C48.6572048,24.0423175 48.8496966,23.5455551 49.0130231,23.0547483 C49.1063524,22.7573215 49.3242354,22.0983581 49.6701031,21.0761067 L45.9516821,21.0761067 C46.2762762,20.3656454 46.7003759,19.310113 47.2260399,17.9060061" id="Fill-55" fill="#F7EB40"></path>
            <path d="M101.631741,22.0776099 L103.453871,16.941613 L111.503364,16.941613 C111.622955,16.5754528 111.906252,15.8072482 112.355322,14.6380442 C112.54591,14.1516887 112.740978,13.5792804 112.948454,12.925 L100.489937,12.925 C99.7234497,14.7544071 99.170297,16.0758585 98.8342696,16.8938833 C98.4389635,17.8606714 98.0829468,18.7393164 97.762773,19.5301666 C97.6145763,19.8959783 97.2968151,20.7056417 96.8032856,21.9591566 L92.5390119,21.9591566 C92.2984508,22.6381729 92.0854611,23.2384525 91.9017662,23.7554665 C91.7246194,24.2421703 91.4837136,24.9431353 91.1752577,25.85 L107.779146,25.85 L109.252152,22.0776099 L101.631741,22.0776099 Z" id="Fill-57" fill="#F7EB40"></path>
            <path d="M185.711197,24.9773724 C185.267359,23.1381396 185.049111,21.9435968 185.049111,21.3890356 C185.049111,21.2144952 185.084151,20.7255128 185.159236,19.9294872 C185.183263,19.6594371 185.197613,19.3665185 185.197613,19.0473684 L180.843664,19.0473684 C180.29237,20.3269955 179.812491,21.3560781 179.405362,22.137979 C178.88477,23.1236786 178.277747,24.1346009 177.587629,25.1697368 L180.084134,25.1697368 C180.404164,24.7604579 180.718188,24.3632859 181.026204,23.9782207 C181.060911,24.020931 181.097285,24.1241755 181.139667,24.2882907 C181.177376,24.4520695 181.225097,24.5479154 181.267479,24.5721291 C181.2865,24.7829901 181.311195,24.9800628 181.338893,25.1697368 L185.752577,25.1697368 C185.737894,25.1048307 185.726881,25.0429512 185.711197,24.9773724" id="Fill-59" fill="#F7EB40"></path>
            <path d="M170.07917,21.3890356 C170.07917,21.2141588 170.116223,20.7255128 170.191329,19.9294872 C170.218702,19.6594371 170.229717,19.3665185 170.229717,19.0473684 L165.875189,19.0473684 C165.322403,20.3269955 164.842387,21.3560781 164.433138,22.137979 C163.9144,23.1236786 163.307871,24.1346009 162.618557,25.1697368 L165.115776,25.1697368 C165.435564,24.7604579 165.749344,24.3632859 166.057115,23.9782207 C166.092499,24.020931 166.130887,24.1241755 166.169274,24.2882907 C166.211668,24.4517332 166.253394,24.5479154 166.295788,24.5721291 C166.315482,24.7829901 166.34152,24.9800628 166.369559,25.1697368 L170.783505,25.1697368 C170.768818,25.1048307 170.757468,25.0429512 170.741445,24.9773724 C170.300819,23.1381396 170.07917,21.9432605 170.07917,21.3890356" id="Fill-61" fill="#F7EB40"></path>
            <path d="M158.063324,21.1996052 C157.336536,20.672901 156.439125,20.4078947 155.368323,20.4078947 C153.231565,20.4078947 151.37341,21.2856247 149.79351,23.0347985 C149.182316,23.7087284 148.69779,24.4220287 148.329897,25.1697368 L152.510315,25.1697368 C152.532118,25.1277196 152.550115,25.0837173 152.573303,25.0430235 C152.976843,24.3336933 153.5825,23.7474372 154.388889,23.2835935 C154.504483,23.2415762 154.587545,23.2164321 154.642919,23.2022058 C154.697601,23.1893028 154.793122,23.1826859 154.922214,23.1826859 C155.128483,23.1826859 155.289069,23.2177554 155.409508,23.2835935 C155.504683,23.3577026 155.574593,23.4367744 155.608164,23.5188238 C155.64831,23.6015348 155.669767,23.6875543 155.669767,23.7798599 C155.669767,23.8619093 155.66423,23.9207996 155.654193,23.9542149 C155.544483,24.3581758 155.273841,24.7627983 154.851265,25.1697368 L158.775577,25.1697368 C159.068368,24.6030005 159.216495,24.0137668 159.216495,23.4017049 C159.216495,22.4958532 158.833374,21.761048 158.063324,21.1996052" id="Fill-63" fill="#F7EB40"></path>
            <path d="M109.587434,25.0579008 C109.573754,25.0941628 109.560073,25.1327971 109.546392,25.1697368 L113.839196,25.1697368 C114.031396,24.6834196 114.157194,24.362823 114.215254,24.214725 C114.834566,22.6239424 115.317402,21.3551119 115.670103,20.4078947 L111.465057,20.4078947 C110.831063,21.8661686 110.204744,23.414928 109.587434,25.0579008" id="Fill-65" fill="#F7EB40"></path>
            <path d="M144.256389,20.9866946 C143.769321,20.6007209 142.948215,20.4078947 141.794756,20.4078947 C140.867136,20.4078947 140.008615,20.5235904 139.216834,20.7501612 C138.660329,20.928204 138.15607,21.1644161 137.69799,21.4594401 C137.473501,21.6288057 137.248337,21.7939935 137.02924,21.9553247 C137.140474,21.6169148 137.213956,21.3594919 137.256764,21.1769498 C137.296875,20.9979428 137.34575,20.7864768 137.395637,20.5441586 L133.27595,20.5441586 L131.319588,25.1697368 L136.54015,25.1697368 C137.465748,24.1570781 138.380223,23.6499453 139.279192,23.6499453 C139.649297,23.6499453 139.911201,23.7251475 140.064569,23.8797298 C140.181869,23.9928545 140.237823,24.1490437 140.237823,24.3499043 C140.237823,24.4395684 140.233778,24.5144493 140.216251,24.5751895 C140.197712,24.6349656 140.181869,24.6892783 140.163331,24.7365207 C140.09895,24.8891748 140.038277,25.0328303 139.980975,25.1697368 L144.315039,25.1697368 C144.37942,24.9881589 144.438407,24.8200787 144.485597,24.6786729 C144.780535,23.7894229 144.927835,23.1203161 144.927835,22.6707098 C144.927835,21.9006906 144.703345,21.3389237 144.256389,20.9866946" id="Fill-67" fill="#F7EB40"></path>
            <path d="M127.514905,17.9060061 C127.995237,16.6168062 128.255302,15.8622038 128.300247,15.6460526 L124.529645,15.6460526 C124.289136,16.335144 123.917909,17.316057 123.411159,18.5880909 C122.982978,19.662541 122.643315,20.4917628 122.393886,21.0761067 C121.639422,21.0761067 120.99818,21.0918714 120.474275,21.1205981 C119.9514,21.1500255 119.519788,21.1664908 119.186301,21.1664908 C118.989708,21.6208637 118.73925,22.2045069 118.430465,22.9146179 C118.209856,23.4323998 117.970033,24.0058836 117.71134,24.6375215 L120.903143,24.6375215 C120.7587,25.0396958 120.61117,25.446074 120.465698,25.85 L124.655561,25.85 L125.083742,24.6375215 C125.292343,24.6375215 126.054697,24.6147503 127.37355,24.5643033 C127.638762,24.5527426 128.089244,24.5471374 128.724311,24.5471374 C128.946293,24.0423175 129.140484,23.5455551 129.30414,23.0547483 C129.397118,22.7573215 129.617041,22.0983581 129.958763,21.0761067 L126.240311,21.0761067 C126.566594,20.3656454 126.991687,19.310113 127.514905,17.9060061" id="Fill-69" fill="#F7EB40"></path>
        </g>
    </g>
</svg>