<?xml version="1.0" encoding="UTF-8" standalone="no"?>
<svg width="22px" height="23px" viewBox="0 0 22 23" version="1.1" xmlns="http://www.w3.org/2000/svg" xmlns:xlink="http://www.w3.org/1999/xlink">
    <!-- Generator: Sketch 46.2 (44496) - http://www.bohemiancoding.com/sketch -->
    <title>Group 2 Copy 4</title>
    <desc>Created with Sketch.</desc>
    <defs></defs>
    <g id="Final-Comps" stroke="none" stroke-width="1" fill="none" fill-rule="evenodd">
        <g id="8h-Report-Card" transform="translate(-334.000000, -368.000000)">
            <g id="Group-3" transform="translate(20.000000, 367.000000)">
                <g id="Group-2-Copy-4" transform="translate(315.000000, 0.000000)">
                    <circle id="Oval-2" stroke="#FF685B" stroke-width="2" cx="10" cy="12.4" r="10"></circle>
                    <path d="M11.66,7 C11.66,7.066667 11.6533334,7.2266654 11.64,7.48 C11.6266666,7.7333346 11.6133334,8.0466648 11.6,8.42 C11.5866666,8.7933352 11.5700001,9.2066644 11.55,9.66 C11.5299999,10.1133356 11.5066668,10.5766643 11.48,11.05 C11.4533332,11.5233357 11.4300001,11.9866644 11.41,12.44 C11.3899999,12.8933356 11.3733334,13.3066648 11.36,13.68 C11.3466666,13.9866682 11.2300011,14.2466656 11.01,14.46 C10.7899989,14.6733344 10.513335,14.78 10.18,14.78 C9.8733318,14.78 9.6100011,14.6733344 9.39,14.46 C9.1699989,14.2466656 9.0533334,13.9866682 9.04,13.68 C9.0266666,13.3066648 9.0066668,12.8933356 8.98,12.44 C8.9533332,11.9866644 8.9300001,11.5233357 8.91,11.05 C8.8899999,10.5766643 8.8666668,10.1133356 8.84,9.66 C8.8133332,9.2066644 8.7933334,8.7933352 8.78,8.42 C8.7666666,8.0466648 8.7533334,7.7333346 8.74,7.48 C8.7266666,7.2266654 8.72,7.066667 8.72,7 C8.72,6.5866646 8.8633319,6.2400014 9.15,5.96 C9.4366681,5.6799986 9.7933312,5.54 10.22,5.54 C10.6333354,5.54 10.9766653,5.6799986 11.25,5.96 C11.5233347,6.2400014 11.66,6.5866646 11.66,7 Z M11.82,17.6 C11.82,17.8133344 11.7766671,18.0166657 11.69,18.21 C11.6033329,18.4033343 11.4866674,18.5733326 11.34,18.72 C11.1933326,18.8666674 11.020001,18.9833329 10.82,19.07 C10.619999,19.1566671 10.4133344,19.2 10.2,19.2 C9.9733322,19.2 9.7633343,19.1566671 9.57,19.07 C9.3766657,18.9833329 9.2100007,18.8666674 9.07,18.72 C8.9299993,18.5733326 8.8166671,18.4033343 8.73,18.21 C8.6433329,18.0166657 8.6,17.8133344 8.6,17.6 C8.6,17.1599978 8.7566651,16.7800016 9.07,16.46 C9.3833349,16.1399984 9.7599978,15.98 10.2,15.98 C10.6400022,15.98 11.0199984,16.1399984 11.34,16.46 C11.6600016,16.7800016 11.82,17.1599978 11.82,17.6 Z" id="!" fill="#FF685B"></path>
                </g>
            </g>
        </g>
    </g>
</svg>